<svg width="200" height="60" viewBox="0 0 200 60" fill="none" xmlns="http://www.w3.org/2000/svg">
<path d="M80.6639 57.7488C77.478 57.7488 75.1523 57.1276 73.6868 55.8851C72.2531 54.6426 71.5363 52.6355 71.5363 49.8637V48.1434C68.7965 47.6973 66.3592 46.6938 64.2247 45.1327C62.122 43.5716 60.4654 41.5964 59.2547 39.207C58.0759 36.8175 57.4866 34.1733 57.4866 31.2741C57.4866 28.0245 58.2193 25.1094 59.6848 22.5288C61.1822 19.9164 63.2211 17.8774 65.8017 16.4119C68.4141 14.9146 71.3452 14.1659 74.5948 14.1659C77.8125 14.1659 80.7117 14.9146 83.2922 16.4119C85.9047 17.8774 87.9436 19.9164 89.4091 22.5288C90.9065 25.1094 91.6552 28.0245 91.6552 31.2741C91.6552 34.1414 91.0658 36.7698 89.887 39.1592C88.7082 41.5486 87.0675 43.5238 84.9648 45.0849C82.8621 46.646 80.4727 47.6496 77.7966 48.0956V49.4814C77.7966 50.5965 78.0514 51.377 78.5612 51.8231C79.0709 52.3009 79.8993 52.5399 81.0462 52.5399H85.2993V57.7488H80.6639ZM74.547 42.1698C76.4266 42.1698 78.1152 41.7079 79.6125 40.784C81.1418 39.8282 82.3205 38.522 83.1489 36.8653C84.0091 35.2087 84.4392 33.3449 84.4392 31.2741C84.4392 29.2033 84.0091 27.3395 83.1489 25.6829C82.3205 24.0262 81.1418 22.72 79.6125 21.7642C78.1152 20.8085 76.4266 20.3306 74.547 20.3306C72.6673 20.3306 70.9788 20.8085 69.4814 21.7642C67.984 22.72 66.8053 24.0262 65.9451 25.6829C65.1168 27.3395 64.7026 29.2033 64.7026 31.2741C64.7026 33.3449 65.1168 35.2087 65.9451 36.8653C66.8053 38.522 67.984 39.8282 69.4814 40.784C70.9788 41.7079 72.6673 42.1698 74.547 42.1698ZM102.039 48.3823C100.255 48.3823 98.6942 47.9841 97.3562 47.1876C96.0181 46.3593 94.9668 45.2283 94.2021 43.7946C93.4694 42.361 93.103 40.7362 93.103 38.9202V23.9147H99.7934V37.4388C99.7934 38.9043 100.223 40.1149 101.084 41.0707C101.944 41.9946 103.059 42.4566 104.429 42.4566C105.862 42.4566 107.041 41.9468 107.965 40.9273C108.921 39.9078 109.399 38.6335 109.399 37.1043V23.9147H116.041V48H109.399V44.6548C108.73 45.8017 107.742 46.7097 106.436 47.3788C105.162 48.0478 103.696 48.3823 102.039 48.3823ZM126.024 48.3823C124.495 48.3823 123.125 48.0796 121.914 47.4743C120.703 46.8372 119.764 45.977 119.095 44.8938C118.426 43.7787 118.091 42.5362 118.091 41.1663C118.091 38.8087 118.919 36.945 120.576 35.575C122.233 34.2051 124.447 33.5201 127.219 33.5201H130.707C131.44 33.5201 131.966 33.3768 132.284 33.0901C132.635 32.8033 132.81 32.3732 132.81 31.7998C132.81 30.7803 132.428 29.9679 131.663 29.3626C130.898 28.7254 129.847 28.4068 128.509 28.4068C127.139 28.4068 126.056 28.7732 125.259 29.5059C124.495 30.2387 124.081 31.1467 124.017 32.2299H118.091C118.187 30.6051 118.665 29.1396 119.525 27.8333C120.417 26.4953 121.659 25.4439 123.252 24.6793C124.877 23.9147 126.757 23.5324 128.891 23.5324C130.898 23.5324 132.698 23.9147 134.291 24.6793C135.884 25.4121 137.127 26.4634 138.019 27.8333C138.943 29.1714 139.405 30.7325 139.405 32.5166V48H132.81V44.6548C132.364 45.7699 131.52 46.6779 130.277 47.3788C129.066 48.0478 127.649 48.3823 126.024 48.3823ZM127.697 43.5557C129.289 43.5557 130.532 43.0459 131.424 42.0265C132.348 41.007 132.81 39.7008 132.81 38.1078V37.8211H128.174C127.059 37.8211 126.167 38.0919 125.498 38.6335C124.829 39.1751 124.495 39.9078 124.495 40.8318C124.495 41.6919 124.781 42.361 125.355 42.8389C125.96 43.3167 126.741 43.5557 127.697 43.5557ZM153.331 48C150.527 48 148.297 47.2354 146.64 45.7062C144.984 44.1769 144.155 42.0265 144.155 39.2547V29.4581H139.568V23.9147H144.155V16.7942H150.846V23.9147H157.297V29.4581H150.846V38.968C150.846 41.2619 151.961 42.4088 154.191 42.4088H157.297V48H153.331ZM158.791 23.9147H165.433V27.9289C166.07 26.4634 166.851 25.428 167.775 24.8227C168.731 24.2174 169.973 23.9147 171.502 23.9147H174.178V29.4581H170.212C168.619 29.4581 167.424 30.0635 166.628 31.2741C165.831 32.4847 165.433 34.1573 165.433 36.2919V48H158.791V23.9147ZM185.509 48.3823C183.087 48.3823 180.905 47.8566 178.962 46.8053C177.018 45.7221 175.505 44.2407 174.422 42.361C173.339 40.4495 172.797 38.3149 172.797 35.9574C172.797 33.5998 173.339 31.4812 174.422 29.6015C175.505 27.69 177.018 26.2085 178.962 25.1572C180.905 24.074 183.087 23.5324 185.509 23.5324C187.93 23.5324 190.112 24.074 192.056 25.1572C193.999 26.2085 195.512 27.69 196.596 29.6015C197.679 31.4812 198.22 33.5998 198.22 35.9574C198.22 38.3149 197.679 40.4495 196.596 42.361C195.512 44.2407 193.999 45.7221 192.056 46.8053C190.112 47.8566 187.93 48.3823 185.509 48.3823ZM185.509 42.6477C187.293 42.6477 188.742 42.0265 189.857 40.784C190.973 39.5415 191.53 37.9326 191.53 35.9574C191.53 33.9502 190.973 32.3254 189.857 31.0829C188.742 29.8405 187.293 29.2192 185.509 29.2192C183.725 29.2192 182.275 29.8405 181.16 31.0829C180.045 32.3254 179.487 33.9502 179.487 35.9574C179.487 37.9326 180.045 39.5415 181.16 40.784C182.275 42.0265 183.725 42.6477 185.509 42.6477Z" fill="#374151"/>
<g clip-path="url(#clip0_461_391)">
<path fill-rule="evenodd" clip-rule="evenodd" d="M48.2181 15.5141V23.5543C43.765 23.5543 40.1812 27.1681 40.1746 31.5845C40.1746 36.031 43.7883 39.6215 48.2115 39.6215V47.6584C39.3386 47.6584 32.1343 40.4608 32.1443 31.5912C32.1443 22.715 39.3452 15.5141 48.2215 15.5141H48.2181ZM32.1443 7.48047C32.1443 11.9302 28.5372 15.5141 24.1074 15.5141C19.6776 15.5141 16.0705 11.9302 16.0705 7.48047H8.03025C8.03025 16.3567 15.2378 23.561 24.1074 23.561C32.977 23.561 40.1879 16.3567 40.1879 7.48047H32.141H32.1443ZM24.1207 39.6148H24.0974C15.2312 39.6281 8.03691 46.8224 8.03691 55.692H16.0805C16.0805 51.2755 19.6543 47.665 24.0974 47.6517H24.1207C28.5638 47.665 32.1343 51.2721 32.1343 55.692H40.1746C40.1746 46.8224 32.9836 39.6281 24.1207 39.6148ZM0 15.5141C8.87291 15.5141 16.0738 22.7116 16.0738 31.5912C16.0738 40.4708 8.87291 47.6684 0 47.6684V39.6281C4.44645 39.6281 8.03691 36.0143 8.03691 31.5912C8.03691 27.1681 4.44645 23.5543 0 23.5543V15.5141Z" fill="#3EA47B"/>
</g>
<defs>
<clipPath id="clip0_461_391">
<rect width="48.2181" height="48.2115" fill="white" transform="translate(0 7.48047)"/>
</clipPath>
</defs>
</svg>
