<svg width="245" height="245" viewBox="0 0 245 245" fill="none" xmlns="http://www.w3.org/2000/svg">
<g clip-path="url(#clip0_430_2678)">
<path fill-rule="evenodd" clip-rule="evenodd" d="M244.691 40.7677V81.5693C222.093 81.5693 203.906 99.908 203.872 122.32C203.872 144.884 222.211 163.105 244.657 163.105V203.889C199.63 203.889 163.071 167.364 163.122 122.354C163.122 77.3099 199.664 40.7677 244.708 40.7677H244.691ZM163.122 0C163.122 22.5811 144.817 40.7677 122.337 40.7677C99.8573 40.7677 81.5524 22.5811 81.5524 0H40.7508C40.7508 45.0439 77.3268 81.6031 122.337 81.6031C167.347 81.6031 203.94 45.0439 203.94 0H163.105H163.122ZM122.405 163.071H122.286C77.293 163.139 40.7846 199.647 40.7846 244.657H81.6031C81.6031 222.245 99.7389 203.923 122.286 203.856H122.405C144.952 203.923 163.071 222.228 163.071 244.657H203.872C203.872 199.647 167.381 163.139 122.405 163.071ZM0 40.7677C45.027 40.7677 81.5693 77.293 81.5693 122.354C81.5693 167.415 45.027 203.94 0 203.94V163.139C22.5642 163.139 40.7846 144.8 40.7846 122.354C40.7846 99.908 22.5642 81.5693 0 81.5693V40.7677Z" fill="#3EA47B"/>
</g>
<defs>
<clipPath id="clip0_430_2678">
<rect width="244.691" height="244.657" fill="white"/>
</clipPath>
</defs>
</svg>
