<svg width="1148" height="784" viewBox="0 0 1148 784" fill="none" xmlns="http://www.w3.org/2000/svg">
<g clip-path="url(#clip0_867_768)">
<path d="M201.523 489.088C190.549 492.61 166.407 494.37 154.116 478.966C138.752 460.042 149.726 445.517 140.508 447.718C104.513 456.08 88.272 433.194 85.1993 426.593C85.1993 426.593 83.8824 422.192 83.0045 426.153C81.6876 431.434 81.2486 444.198 84.3213 455.64C87.833 470.164 98.368 494.37 128.217 506.693C153.238 516.815 185.282 511.974 206.352 490.409C211.619 485.568 210.302 486.448 201.523 489.088Z" fill="#E20626"/>
<path d="M144.9 288.844C136.56 278.721 127.781 273 127.781 273C134.365 286.643 143.145 313.93 113.734 344.738C95.7371 363.663 83.0073 383.028 90.4696 405.473C93.9813 416.476 102.321 430.559 119.002 433.2C125.147 434.08 132.171 433.2 136.121 431.88C160.703 423.517 157.191 397.991 151.485 381.707C150.607 379.506 149.729 374.225 149.29 372.465C145.778 356.621 157.191 346.058 160.703 334.615C161.142 333.735 161.142 332.855 161.581 331.975C162.019 329.774 162.459 327.574 162.459 325.813C162.459 306.888 152.802 298.526 144.9 288.844Z" fill="#E20626"/>
<path d="M226.552 434.954C225.235 419.11 218.651 407.666 199.337 385.661C189.679 374.658 183.534 361.455 183.973 351.772C185.29 339.89 190.558 333.288 190.558 333.288C190.558 333.288 183.534 336.809 178.266 342.09C173.877 346.931 169.488 350.893 165.536 360.575C165.098 361.895 165.098 363.216 164.659 364.976C162.464 381.26 176.072 396.224 171.682 416.909C170.365 422.191 168.171 423.951 163.781 433.193C158.513 444.196 159.831 459.159 167.292 468.402C173.877 476.764 186.168 480.725 197.581 478.084C218.651 472.803 228.308 454.759 226.552 434.954Z" fill="#E20626"/>
<path d="M314.222 456.866H295.346C288.323 456.866 278.666 456.866 265.497 456.426V450.264L278.227 444.983V349.919L265.497 344.638V338.476C271.643 338.476 279.544 338.476 288.323 338.036C297.102 338.036 304.565 338.036 310.71 338.036C344.949 338.036 361.63 346.839 361.63 364.443C361.63 374.125 357.678 380.287 348.021 386.448C343.193 389.089 335.731 391.73 327.391 392.61C339.242 393.49 347.582 395.251 353.289 398.331C362.068 403.173 366.897 410.655 366.897 420.777C367.336 444.542 348.899 456.866 314.222 456.866ZM305.882 347.278V389.089H306.759C323.001 389.089 332.658 380.727 332.658 365.323C333.097 353 326.512 347.278 305.882 347.278ZM308.515 398.771H306.32V446.304C308.076 446.304 309.393 446.743 311.149 446.304C330.463 446.304 338.804 438.822 338.804 421.217C338.804 405.813 328.708 398.771 308.515 398.771Z" fill="white"/>
<path d="M463.009 448.926C456.424 455.087 448.084 458.608 438.866 458.608C430.526 458.608 424.38 452.446 424.38 444.524V444.084C418.235 453.326 409.456 458.167 399.36 458.167C386.191 458.167 376.973 449.366 376.973 435.722C376.973 424.279 383.118 416.357 394.97 411.516C401.994 408.875 411.212 407.115 424.38 406.234V403.594C424.38 397.873 423.502 393.911 421.308 391.271C418.674 387.75 413.407 385.55 408.139 385.55C400.238 385.55 393.214 389.07 385.752 398.752L380.924 396.112C387.947 378.507 401.115 367.945 417.796 367.945C430.087 367.945 439.305 372.346 445.45 380.268C448.962 385.11 450.718 391.711 450.718 400.073V438.803C450.718 443.204 452.913 444.964 456.424 444.964C458.18 444.964 459.497 444.524 461.253 444.084L463.009 448.926ZM403.311 431.761C403.311 438.803 407.261 443.204 414.284 443.204C417.796 443.204 420.868 442.323 424.38 438.803V414.597C417.357 414.597 412.09 416.357 408.139 419.438C405.066 422.078 403.311 426.04 403.311 431.761Z" fill="white"/>
<path d="M544.233 430.441C536.332 449.366 524.479 458.168 506.921 458.168C494.63 458.168 484.973 454.207 477.511 446.285C470.488 438.363 466.537 428.24 466.537 415.037C466.537 401.393 470.927 389.951 479.706 381.148C488.485 372.346 499.459 367.945 512.627 367.945C521.407 367.945 532.82 370.585 540.282 374.107L540.721 404.914L531.942 405.795L526.675 395.232C524.919 391.271 521.846 385.55 517.895 377.628C516.139 377.188 514.383 376.747 512.627 376.747C500.337 376.747 493.753 387.75 493.753 406.674C493.753 426.04 502.532 438.363 516.579 438.363C525.796 438.363 531.942 435.282 539.843 426.92L544.233 430.441Z" fill="white"/>
<path d="M596.46 450.252V456.414H549.052V450.252L560.027 444.971V344.186L548.175 341.105V333.623L585.925 326.141L586.803 326.581V407.562L616.213 384.236L605.678 378.514V371.472H644.746V378.514L630.26 384.236L610.946 398.319L642.112 445.851L649.135 450.252V456.414H615.774L590.315 413.283L586.803 415.484V444.971L596.46 450.252Z" fill="white"/>
<path d="M736.082 379.394C742.228 386.876 744.862 396.558 744.862 408.002C744.862 423.406 740.911 435.288 732.571 444.531C724.231 453.333 712.818 458.174 697.893 458.174C689.553 458.174 680.335 456.414 671.117 452.013L663.654 458.174L659.265 456.854V344.186L647.413 341.105V333.623L685.163 326.141L686.042 326.581V382.475C691.309 373.673 701.405 368.391 712.818 368.391C722.475 368.391 729.937 371.913 736.082 379.394ZM699.649 383.355C693.943 383.355 688.236 387.317 686.48 391.717V446.291C689.114 447.611 693.065 448.051 696.576 448.051C710.623 448.051 718.085 436.169 718.085 414.603C717.646 394.798 710.623 383.355 699.649 383.355Z" fill="white"/>
<path d="M798.393 450.252V456.414H750.107V450.252L761.081 444.971V344.186L749.229 341.105V333.623L786.98 326.141L787.857 326.581V444.971L798.393 450.252Z" fill="white"/>
<path d="M892.779 448.926C886.195 455.087 877.412 458.608 868.635 458.608C860.293 458.608 854.15 452.446 854.15 444.524V444.084C848 453.326 839.224 458.167 829.131 458.167C815.962 458.167 806.737 449.366 806.737 435.722C806.737 424.279 812.887 416.357 824.739 411.516C831.764 408.875 840.982 407.115 854.15 406.234V403.594C854.15 397.873 853.267 393.911 851.075 391.271C848.442 387.75 843.174 385.55 837.907 385.55C830.006 385.55 822.981 389.07 815.521 398.752L810.688 396.112C817.713 378.507 830.881 367.945 847.566 367.945C859.852 367.945 869.069 372.346 875.219 380.268C878.729 385.11 880.487 391.711 880.487 400.073V438.803C880.487 443.204 882.679 444.964 886.195 444.964C887.946 444.964 889.263 444.524 891.021 444.084L892.779 448.926ZM833.081 431.761C833.081 438.803 837.031 443.204 844.05 443.204C847.566 443.204 850.634 442.323 854.15 438.803V414.597C847.125 414.597 841.857 416.357 837.907 419.438C834.398 422.078 833.081 426.04 833.081 431.761Z" fill="white"/>
<path d="M904.619 371.047H973.094L975.727 376.328L930.08 447.187L955.975 446.746L969.585 422.54L974.852 422.98L975.727 455.108L974.852 456.428H901.11L898.91 450.267L944.999 379.409H922.179L908.128 401.415L901.985 400.535L904.177 371.487L904.619 371.047Z" fill="white"/>
<path d="M1064.4 430C1058.69 447.605 1043.76 458.168 1025.33 458.168C1013.48 458.168 1003.82 454.207 996.798 446.285C989.773 438.363 986.264 427.8 986.264 415.037C986.264 401.833 990.648 390.831 998.991 381.588C1007.33 372.786 1017.43 367.945 1028.84 367.945C1044.2 367.945 1055.18 373.226 1060.88 382.909C1063.96 388.19 1065.71 394.792 1065.71 402.714C1065.71 404.914 1065.71 407.115 1065.27 408.875H1012.6C1013.04 427.8 1022.26 438.363 1036.74 438.363C1040.69 438.363 1044.2 437.482 1047.71 436.162C1050.79 434.842 1055.18 431.761 1060.88 426.92L1064.4 430ZM1012.6 400.953L1039.38 400.514C1039.38 386.429 1034.54 376.747 1027.53 376.747C1018.74 376.747 1013.48 384.669 1012.6 400.953Z" fill="white"/>
</g>
<defs>
<clipPath id="clip0_867_768">
<rect width="984" height="238.765" fill="white" transform="translate(82 273)"/>
</clipPath>
</defs>
</svg>
