<svg preserveAspectRatio="xMidYMid meet" data-bbox="30.827 48.632 178.358 142.721" viewBox="30.827 48.632 178.358 142.721" xmlns="http://www.w3.org/2000/svg" data-type="color" role="presentation" aria-hidden="true" aria-label="">
    <g>
        <path d="M107.8 117.52c.49 1.48-.73 2.97-2.41 2.95l-36.25-.43c-1.63-.02-2.93-1.24-2.93-2.74v-16.72c0-1.51 1.33-2.74 2.97-2.74h24.04c4.8 0 9.03 2.89 10.43 7.11l4.16 12.57Z" fill="currentColor" data-color="1"></path>
        <path d="M131.6 123.42c-.49-1.48.73-2.97 2.41-2.95l36.25.43c1.63.02 2.93 1.24 2.93 2.74v16.72c0 1.51-1.33 2.74-2.97 2.74h-24.04c-4.8 0-9.03-2.89-10.43-7.11l-4.16-12.57Z" fill="currentColor" data-color="1"></path>
        <path d="M42.5 158.61c-6.53-5.48-10.88-14.2-11.35-22.76-.45-8.13-.41-48.15 0-56.3.74-14.52 11.28-27.2 25.64-30.01 5.35-1.05 16.32-1.09 21.87-.62 3.27.27 6.89 1.89 9.35 4.03 5.46 4.76 9.86 19.8 16.67 20.79l74.59.06c15.94 1.51 28.76 13.89 29.57 30.1.43 8.52.49 49.14 0 57.63-.84 14.39-11.96 26.85-26.18 29.21-4.31.71-19.6.92-23.66 0-9.74-2.21-12.59-12.85-17.65-20.07-2.23-3.18-4.42-4.47-8.37-4.75H58.86c-5.96-1.04-11.71-3.42-16.36-7.32Zm20.45-84.19c-3.45.26-5.74 2.97-6.38 6.21.68 7.65-.9 46.12.03 53.58.46 3.72 3.37 6.28 7.06 6.59l53-.02c5.91.75 9.52 3.98 12.65 8.76 3.32 5.07 7.05 15.3 13.58 16.12h34.21c2.88-.74 5.5-2.86 5.78-5.99.71-7.99-.54-46.29-.03-54.39-.52-3.05-2.87-5.46-5.99-5.79l-53.19-.06c-13.04-1.64-14.01-14.14-20.8-22.01-1.03-1.19-2.61-2-4.01-2.68-11.19-.24-22.4-.11-33.6-.11-.8 0-1.34-.29-2.32-.21Z" fill="currentColor" data-color="1"></path>
    </g>
</svg>