<svg width="1148" height="784" viewBox="0 0 1148 784" fill="none" xmlns="http://www.w3.org/2000/svg">
<g clip-path="url(#clip0_867_590)">
<path d="M709.541 420.393C692.129 420.393 677.96 406.225 677.96 388.812C677.96 371.4 692.129 357.232 709.541 357.232C726.953 357.232 741.122 371.4 741.122 388.812C741.122 406.395 726.783 420.393 709.541 420.393ZM709.541 338.454C681.716 338.454 659.183 360.987 659.183 388.812C659.183 416.638 681.716 439.171 709.541 439.171C737.366 439.171 759.9 416.638 759.9 388.812C759.9 361.158 737.366 338.454 709.541 338.454Z" fill="white"/>
<path d="M647.916 422.954H652.013V441.902H647.916C626.236 441.902 608.483 424.149 608.483 402.469V315.921H627.431V341.186H651.842V360.134H627.431V402.64C627.431 413.736 636.649 422.954 647.916 422.954Z" fill="white"/>
<path d="M878.711 420.393C861.299 420.393 847.131 406.225 847.131 388.812C847.131 371.4 861.299 357.232 878.711 357.232C896.124 357.232 910.292 371.4 910.292 388.812C910.121 406.395 895.953 420.393 878.711 420.393ZM878.711 338.454C850.886 338.454 828.353 360.987 828.353 388.812C828.353 416.638 850.886 439.171 878.711 439.171C906.537 439.171 929.07 416.638 929.07 388.812C929.07 361.158 906.537 338.454 878.711 338.454Z" fill="white"/>
<path d="M1023.64 420.393C1006.23 420.393 992.061 406.225 992.061 388.812C992.061 371.4 1006.23 357.232 1023.64 357.232C1041.05 357.232 1055.22 371.4 1055.22 388.812C1055.22 406.395 1040.88 420.393 1023.64 420.393ZM1023.64 338.454C995.816 338.454 973.283 360.987 973.283 388.812C973.283 416.638 995.816 439.171 1023.64 439.171C1035.93 439.171 1047.2 434.733 1055.91 427.392V437.293H1074V390.349C1074 389.837 1074 389.325 1074 388.812C1074 361.158 1051.47 338.454 1023.64 338.454Z" fill="white"/>
<path d="M811.965 338.454H821.012V357.403H811.965C800.698 357.403 791.48 366.621 791.48 377.887V390.178V413.565V437.976H772.532V377.887C772.532 356.208 790.285 338.454 811.965 338.454Z" fill="white"/>
<path d="M960.651 313.36H941.702V437.634H960.651V313.36Z" fill="white"/>
<path d="M482.501 380.448V440.366H463.553V380.448C463.553 369.181 454.335 359.963 443.068 359.963C431.801 359.963 422.583 369.181 422.583 380.448V440.366H403.635V380.448C403.635 369.181 394.417 359.963 383.15 359.963C371.883 359.963 362.665 369.181 362.665 380.448V440.366H343.717V380.448C343.717 358.768 361.47 341.015 382.979 341.015C395.099 341.015 405.683 346.307 413.024 354.842C420.364 346.307 430.948 341.015 443.068 341.015C464.748 341.015 482.501 358.768 482.501 380.448Z" fill="white"/>
<path d="M545.662 422.954C528.25 422.954 514.082 408.785 514.082 391.373C514.082 373.961 528.25 359.792 545.662 359.792C563.075 359.792 577.243 373.961 577.243 391.373C577.243 408.785 562.904 422.954 545.662 422.954ZM545.662 341.015C517.667 341.015 495.133 363.548 495.133 391.373C495.133 419.198 517.667 441.732 545.492 441.732C573.317 441.732 595.85 419.198 595.85 391.373C596.021 363.719 573.488 341.015 545.662 341.015Z" fill="white"/>
<path d="M188.544 277C252.559 277 303.089 328.553 303.089 391.543C303.089 454.876 251.876 506.088 188.544 506.088C125.212 506.088 74 454.876 74 391.543C74.0001 328.211 125.212 277 188.544 277ZM188.715 417.833L188.544 418.003L188.202 417.833L154.232 305.167L110.36 449.414H118.555C118.57 449.345 124.029 424.299 133.064 409.297C138.015 401.104 145.526 394.446 155.598 394.617C162.767 394.788 168.913 398.714 176.595 409.468C178.302 411.858 180.35 415.784 182.398 419.54C185.642 425.856 188.373 432.343 188.373 432.343C188.373 432.343 195.543 415.955 200.152 409.468C207.834 398.714 213.98 394.787 221.149 394.617C231.221 394.446 238.903 401.104 243.683 409.297C252.722 424.306 258.183 449.37 258.192 449.414H266.387L222.686 305.167L188.715 417.833Z" fill="white"/>
</g>
<defs>
<clipPath id="clip0_867_590">
<rect width="1000" height="229.088" fill="white" transform="translate(74 277)"/>
</clipPath>
</defs>
</svg>
