<svg width="1148" height="784" viewBox="0 0 1148 784" fill="none" xmlns="http://www.w3.org/2000/svg">
<g clip-path="url(#clip0_867_474)">
<path d="M985.908 202.477C976.286 172.926 818.564 200.072 633.353 263.298C591.774 277.387 552.602 292.162 516.521 306.938C517.896 307.282 519.27 307.625 520.645 308.312C524.425 309.343 528.205 310.718 531.641 312.436C563.941 299.378 598.99 286.664 636.102 273.95C802.414 217.597 943.986 191.481 951.889 215.535C953.607 220.346 949.828 226.531 941.581 234.09C944.673 237.183 947.422 240.963 949.14 244.743C975.255 227.218 988.657 212.442 985.564 202.477" fill="#C5A469"/>
<path d="M379.76 372.226C336.121 397.31 311.723 418.615 316.191 431.329C322.376 450.228 381.478 446.448 477.005 423.769C492.812 419.989 507.931 414.491 522.363 407.275C431.304 429.611 355.02 435.796 349.865 419.646C347.46 412.773 356.738 402.465 374.606 389.751C375.293 385.971 376.324 382.191 377.699 378.755C378.386 376.693 379.073 374.288 380.104 372.226" fill="#C5A469"/>
<path d="M598.991 415.522V404.527C597.96 394.562 595.899 384.94 592.806 376.006V375.319C591.775 372.226 590.744 369.477 589.37 366.728C589.37 366.041 588.683 365.354 588.339 364.667C586.965 361.918 585.59 359.169 583.872 356.42C572.876 337.52 556.382 322.401 536.109 313.123V313.467C535.078 313.123 534.047 312.436 533.016 312.093C529.58 310.718 525.8 309.344 522.02 307.969C520.646 307.626 519.271 307.282 517.897 306.595C515.835 305.907 513.773 305.564 511.712 305.22C509.306 304.876 506.557 304.189 504.152 303.846C498.31 303.158 492.469 302.471 486.284 302.471C441.956 302.471 405.189 325.15 386.634 359.512L383.541 365.697C382.854 367.416 381.823 369.477 381.136 371.195C380.448 373.257 379.418 375.319 378.73 377.724C377.699 381.16 376.668 384.94 375.638 388.72L374.607 393.874C373.576 400.403 372.889 407.619 372.889 414.492V419.646C385.603 420.333 402.784 418.959 423.401 415.866V414.492C423.401 376.35 449.516 348.173 486.284 348.173C523.051 348.173 501.059 349.547 507.588 351.609C508.619 351.609 509.306 352.296 510.337 352.64C511.024 352.64 511.711 353.327 512.399 353.327C535.078 363.636 549.51 386.315 549.51 414.835C549.51 443.356 548.479 428.58 546.761 434.765C539.201 461.911 516.179 480.81 485.94 480.81C455.701 480.81 439.551 466.722 429.586 445.418C410.343 448.854 393.162 450.915 378.387 451.946C393.162 496.617 434.053 527.543 485.94 527.543C537.827 527.543 585.934 491.463 596.93 440.607C597.617 437.858 597.96 435.109 598.304 432.36V431.329C598.304 429.611 598.648 428.236 598.991 426.518V414.492V415.522Z" fill="white"/>
<path d="M731.629 432.36L676.993 304.189H622.357L727.849 527.542H734.034L839.526 304.189H785.577L731.629 432.36Z" fill="white"/>
<path d="M101.428 304.533V524.106H150.909V401.777L296.604 525.824H302.102V306.251H252.277V427.549L106.582 304.533H101.428Z" fill="white"/>
<path d="M940.55 315.528V524.106H890.038V315.528H940.55Z" fill="white"/>
<path d="M915.466 288.726C930.929 288.726 943.299 276.356 943.299 260.893C943.299 245.43 942.612 253.333 941.237 250.241C939.519 246.461 937.114 243.025 934.365 240.276C929.554 235.809 923.025 233.06 915.809 233.06C900.346 233.06 887.976 245.43 887.976 260.893C887.976 276.356 900.346 288.726 915.809 288.726" fill="white"/>
<path d="M964.948 496.616C967.01 496.616 969.071 497.303 971.133 498.334C973.195 499.365 974.569 501.083 975.944 503.145C976.975 505.207 977.662 507.269 977.662 509.33C977.662 511.392 976.975 513.454 975.944 515.515C974.913 517.577 973.195 518.952 971.133 520.326C969.071 521.357 967.01 522.044 964.948 522.044C962.886 522.044 960.824 521.357 958.763 520.326C956.701 519.295 955.326 517.577 953.952 515.515C952.921 513.454 952.234 511.392 952.234 509.33C952.234 507.269 952.921 504.863 953.952 503.145C954.983 501.083 956.701 499.709 958.763 498.334C960.824 497.303 962.886 496.616 964.948 496.616ZM964.948 498.678C963.23 498.678 961.512 499.022 959.794 500.052C958.076 501.083 956.701 502.114 956.014 503.832C954.983 505.55 954.639 507.269 954.639 508.987C954.639 510.705 954.983 512.423 956.014 514.141C957.044 515.859 958.419 517.234 959.794 517.921C961.512 518.952 963.23 519.295 964.948 519.295C966.666 519.295 968.384 518.952 970.102 517.921C971.821 516.89 973.195 515.515 973.882 514.141C974.913 512.423 975.257 510.705 975.257 508.987C975.257 507.269 974.913 505.55 973.882 503.832C972.851 502.114 971.477 500.74 970.102 500.052C968.384 499.022 966.666 498.678 964.948 498.678ZM959.45 516.203V502.458H964.261C965.979 502.458 967.01 502.458 967.697 502.802C968.384 502.802 969.071 503.489 969.415 504.176C969.759 504.863 970.102 505.551 970.102 506.238C970.102 507.269 969.759 507.956 969.071 508.987C968.384 509.674 967.353 510.017 966.322 510.361C966.666 510.361 967.353 510.705 967.353 511.048C968.041 511.736 968.728 512.423 969.415 513.797L971.133 516.546H968.384L967.01 514.485C965.979 512.766 965.291 511.736 964.604 511.392C964.261 511.392 963.573 511.048 962.886 511.048H961.512V516.89H959.45V516.203ZM961.855 508.643H964.604C965.979 508.643 966.666 508.643 967.353 507.956C967.697 507.612 968.04 506.925 968.04 506.581V505.55C968.04 505.55 967.353 504.863 967.01 504.863H962.543V508.987L961.855 508.643Z" fill="white"/>
</g>
<defs>
<clipPath id="clip0_867_474">
<rect width="884.573" height="337.01" fill="white" transform="translate(101.428 190.533)"/>
</clipPath>
</defs>
</svg>
