<svg width="1148" height="784" viewBox="0 0 1148 784" fill="none" xmlns="http://www.w3.org/2000/svg">
<g clip-path="url(#clip0_867_397)">
<path d="M569.328 409.705C569.02 411.089 568.543 412.818 567.879 414.9C567.215 416.975 566.477 419.218 565.683 421.601L486.955 423.601C485.758 429.142 484.638 436.31 485.03 440.403C485.431 444.497 486.768 447.86 489.048 450.504C491.328 453.148 494.683 455.141 499.102 456.456C503.522 457.782 508.726 458.839 515.716 458.839C522.127 458.839 528.284 458.689 535.293 458.315C542.387 457.933 548.404 457.39 553.236 455.502L550.255 469.613C548.03 470.071 547.284 470.277 544.097 470.78C541.163 471.229 537.668 471.79 533.938 472.051C530.359 472.312 526.845 472.594 522.688 472.668C518.689 472.742 514.446 472.818 510.315 472.818C501.756 472.818 494.363 471.95 488.102 470.248C481.831 468.548 476.86 465.651 473.188 461.557C469.505 457.464 467.217 452.054 466.319 445.315C465.422 438.577 466.29 430.103 468.496 419.897C470.702 409.701 473.702 401.234 477.514 394.497C481.325 387.759 485.914 382.34 491.297 378.246C496.669 374.153 502.792 371.256 509.641 369.555C516.499 367.855 524.07 367.004 532.339 367.004C542.179 367.004 549.85 368.293 555.356 370.882C560.86 373.46 564.803 376.797 567.205 380.89C569.596 384.984 570.811 389.581 570.858 394.684C570.897 399.781 570.383 404.791 569.328 409.705ZM551.096 409.892C551.937 405.996 552.461 402.24 552.665 398.652C552.87 395.064 552.309 391.923 550.964 389.213C549.628 386.503 547.274 384.363 543.9 382.784C540.536 381.213 535.713 380.419 529.444 380.419C522.735 380.419 517.118 381.176 512.587 382.691C508.055 384.204 504.26 386.41 501.215 389.297C498.16 392.204 495.682 395.726 493.795 399.886C491.897 404.045 490.824 406.352 489.57 411.51L551.096 409.892Z" fill="white"/>
<path d="M658.625 421.95C656.279 419.604 652.963 417.642 648.672 416.053C644.373 414.464 639.093 412.979 632.841 411.577C628.468 410.689 624.946 409.84 622.273 409.017C619.592 408.187 617.6 407.177 616.3 405.97C614.993 404.766 614.189 403.335 613.909 401.69C613.619 400.037 613.769 397.878 614.339 395.213C615.601 389.383 618.488 385.447 622.993 383.42C627.487 381.393 633.805 380.373 641.934 380.373C647.354 380.373 652.41 380.756 657.091 381.514C661.464 382.234 665.089 383.112 668.025 384.158L671.043 369.861C668.502 369.123 665.221 368.516 660.979 368.011C655.625 367.375 650.167 367.03 644.607 367.03C630.777 367.03 619.843 369.59 611.835 374.664C603.816 379.738 598.9 386.465 597.097 394.839C596.164 399.147 595.855 402.895 596.164 406.063C596.482 409.231 597.603 411.96 599.538 414.24C601.464 416.53 604.314 418.491 608.097 420.144C611.882 421.789 616.843 423.257 622.993 424.518C628.301 425.659 632.524 426.742 635.655 427.752C638.785 428.769 641.141 429.939 642.701 431.276C644.272 432.602 645.169 434.257 645.382 436.218C645.598 438.19 645.382 440.684 644.718 443.741C643.4 449.825 640.261 453.982 635.279 456.199C630.308 458.423 623.402 459.525 614.563 459.525C611.993 459.525 609.199 459.431 606.17 459.243C603.142 459.048 600.181 458.766 597.264 458.384C594.359 458.002 591.565 457.562 588.892 457.048C586.219 456.552 583.873 456.009 581.986 455.506L579.004 469.616C580.499 469.99 582.508 470.41 585.051 470.85C587.592 471.29 590.405 471.643 593.489 471.896C596.573 472.149 599.694 472.373 602.87 472.56C606.039 472.756 609.038 472.85 611.898 472.85C626.159 472.85 637.549 470.467 646.063 465.712C654.577 460.954 659.949 453.441 662.163 443.172C663.239 438.219 663.5 434.033 662.957 430.603C662.418 427.184 660.971 424.296 658.625 421.95Z" fill="white"/>
<path d="M701.809 367.033H720.329L698.032 472.826H679.512L701.809 367.033Z" fill="white"/>
<path d="M711.738 319.921H730.258L725.165 344.088H706.645L711.738 319.921Z" fill="#5589C7"/>
<path d="M828.496 367.033L825.151 382.882C819.068 373.256 808.247 367.033 794.556 367.033H791.164C781.474 367.033 773.231 368.519 766.467 371.49C759.701 374.453 753.944 378.47 749.225 383.526C744.507 388.59 740.74 394.497 737.936 401.245C735.133 407.992 732.917 415.141 731.301 422.701C729.498 431.073 729.292 433.709 729.19 440.52C729.077 447.342 730.32 453.173 732.909 458.033C735.506 462.894 739.581 466.677 745.132 469.368C750.683 472.07 758.364 472.826 768.064 472.826C779.185 472.826 787.987 471.173 794.455 467.594C795.175 467.201 795.857 466.697 796.548 466.266L799.659 451.491C797.239 453.165 794.622 454.565 791.68 455.65C786.719 457.472 780.746 458.379 773.756 458.379C766.915 458.379 761.635 457.762 758.037 455.603C754.439 453.455 751.964 450.51 750.628 446.799C749.281 443.09 748.824 438.736 749.254 433.746C749.684 428.746 749.76 428.363 750.983 422.701C752.114 417.44 753.498 412.31 755.143 407.32C756.777 402.32 759.078 397.938 762.03 394.153C764.983 390.387 768.731 387.342 773.291 385.051C777.851 382.761 783.626 381.612 790.606 381.612C797.597 381.612 803.167 382.593 807.305 384.546C811.454 386.499 814.501 389.227 816.454 392.741C818.408 396.244 819.38 400.562 819.351 405.692C819.314 410.663 818.165 416.035 816.913 422.016L816.894 422.082L816.82 422.409C816.802 422.493 816.792 422.567 816.773 422.662C816.605 423.41 816.473 424.12 816.306 424.849L808.841 460.332L807.028 468.93C804.326 481.48 799.028 490.376 791.665 495.777C784.301 501.168 774.2 503.87 761.36 503.87C751.24 503.87 733.176 500.198 724.673 498.226L721.496 513C726.655 514.487 738.252 517.505 743.129 518.046C748.008 518.578 752.941 518.85 757.932 518.85C777.473 518.85 792.685 514.608 803.572 506.094C814.45 497.601 821.71 485.779 824.952 470.667L846.902 367.035L828.496 367.033Z" fill="white"/>
<path d="M959.237 388.584C958.947 384.229 957.685 380.444 955.444 377.239C953.201 374.033 949.771 371.548 945.156 369.773C940.54 368.007 934.464 367.035 926.915 367.035C923.346 367.035 919.674 367.39 915.915 367.931C912.167 368.482 908.514 369.399 904.955 370.688C904.188 370.978 903.431 371.287 902.675 371.624C896.889 373.838 891.079 377.576 886.434 381.846L899.48 319.919H881.033L848.812 472.826H867.258L881.405 405.665C884.023 400.759 887.312 396.152 890.423 393.284C893.525 390.424 896.768 388.209 900.179 386.639C903.571 385.078 907.066 384.06 910.672 383.573C914.26 383.096 917.914 382.862 921.625 382.862C926.185 382.862 929.801 383.468 932.464 384.694C935.129 385.927 937.043 387.665 938.202 389.918C939.362 392.161 939.876 394.965 939.734 398.3C939.594 401.637 938.78 405.42 937.884 409.635L924.567 472.824H942.995L957.685 403.037C958.816 397.723 959.517 392.949 959.237 388.584Z" fill="white"/>
<path d="M1012.23 457.821C1010.26 458.027 1008 458.13 1005.43 458.13C1001.86 458.13 999.07 457.821 997.061 457.215C995.053 456.598 993.603 455.504 992.736 453.944C991.847 452.375 991.483 450.235 991.642 447.506C991.792 444.786 992.333 441.254 993.258 436.891L1004.07 385.337H1032.73L1033.83 380.179L1036.6 367.068V367.039L1007.95 367.047L1017.87 319.921H999.529L974.643 437.917C973.101 445.132 972.455 451.018 972.7 455.578C972.942 460.139 974.176 463.708 976.411 466.296C978.644 468.885 981.841 470.622 985.998 471.502C990.155 472.39 995.454 472.828 1001.87 472.828C1004.29 472.828 1006.52 472.725 1008.57 472.52C1010.6 472.314 1012.16 472.156 1014.51 471.884L1017.65 456.981C1015.56 457.392 1014.19 457.616 1012.23 457.821Z" fill="white"/>
<path d="M145.697 310.097L111.4 472.836H144.706L170.804 349.141L145.697 310.097Z" fill="white"/>
<path d="M327.235 363.118L304.134 472.845L337.486 472.853L369.005 323.141L327.235 363.118Z" fill="white"/>
<path d="M363.401 265.153L251.815 371.954C248.91 374.74 244.182 374.179 242.004 370.797L200.672 306.598C198.991 303.991 196.102 302.412 192.999 302.412H151.526H151.518L152.424 303.814L234.695 431.753C236.227 434.128 239.535 434.518 241.583 432.567L416.497 265.155L363.401 265.153Z" fill="#5589C7"/>
<path d="M388.989 367.033H407.62L385.325 472.826H366.691L388.989 367.033Z" fill="white"/>
<path d="M398.918 319.921H417.551L412.458 344.088H393.823L398.918 319.921Z" fill="white"/>
<path d="M446.39 319.921H465.135L432.913 472.82H414.158L446.39 319.921Z" fill="white"/>
</g>
<defs>
<clipPath id="clip0_867_397">
<rect width="1148" height="784" fill="white"/>
</clipPath>
</defs>
</svg>
