<svg width="1148" height="784" viewBox="0 0 1148 784" fill="none" xmlns="http://www.w3.org/2000/svg">
<path d="M458.838 348.554C458.838 355.053 459.54 360.323 460.77 364.187C462.175 368.052 463.932 372.268 466.391 376.835C467.269 378.24 467.62 379.645 467.62 380.875C467.62 382.631 466.567 384.388 464.283 386.145L453.217 393.522C451.636 394.576 450.055 395.103 448.649 395.103C446.893 395.103 445.136 394.225 443.38 392.644C440.92 390.009 438.813 387.198 437.056 384.388C435.299 381.402 433.543 378.064 431.611 374.024C417.909 390.185 400.695 398.265 379.967 398.265C365.212 398.265 353.443 394.049 344.836 385.618C336.228 377.186 331.837 365.944 331.837 351.891C331.837 336.96 337.107 324.84 347.822 315.706C358.537 306.571 372.765 302.004 390.858 302.004C396.83 302.004 402.978 302.531 409.478 303.41C415.977 304.288 422.652 305.693 429.678 307.274V294.451C429.678 281.101 426.868 271.791 421.422 266.346C415.801 260.9 406.316 258.266 392.79 258.266C386.642 258.266 380.318 258.968 373.819 260.549C367.32 262.13 360.996 264.062 354.848 266.521C352.038 267.751 349.93 268.454 348.7 268.805C347.47 269.156 346.592 269.332 345.89 269.332C343.43 269.332 342.201 267.575 342.201 263.887V255.279C342.201 252.469 342.552 250.361 343.43 249.131C344.309 247.902 345.89 246.672 348.349 245.443C354.497 242.281 361.874 239.646 370.482 237.538C379.089 235.254 388.223 234.2 397.884 234.2C418.788 234.2 434.07 238.943 443.907 248.429C453.568 257.914 458.486 272.318 458.486 291.641V348.554H458.838ZM387.52 375.254C393.317 375.254 399.29 374.2 405.613 372.092C411.937 369.984 417.558 366.12 422.301 360.85C425.111 357.512 427.219 353.823 428.273 349.608C429.327 345.392 430.03 340.298 430.03 334.325V326.948C424.936 325.718 419.49 324.664 413.869 323.962C408.248 323.259 402.803 322.908 397.357 322.908C385.588 322.908 376.981 325.191 371.184 329.934C365.388 334.677 362.577 341.352 362.577 350.135C362.577 358.391 364.685 364.539 369.076 368.754C373.292 373.146 379.44 375.254 387.52 375.254ZM528.574 394.225C525.412 394.225 523.304 393.698 521.899 392.468C520.493 391.414 519.264 388.955 518.21 385.618L476.93 249.834C475.876 246.321 475.349 244.037 475.349 242.808C475.349 239.997 476.755 238.416 479.565 238.416H496.78C500.117 238.416 502.401 238.943 503.63 240.173C505.036 241.227 506.09 243.686 507.143 247.023L536.654 363.309L564.057 247.023C564.935 243.51 565.989 241.227 567.394 240.173C568.799 239.119 571.259 238.416 574.42 238.416H588.473C591.811 238.416 594.094 238.943 595.499 240.173C596.905 241.227 598.134 243.686 598.837 247.023L626.591 364.714L656.98 247.023C658.034 243.51 659.263 241.227 660.493 240.173C661.898 239.119 664.182 238.416 667.343 238.416H683.68C686.49 238.416 688.071 239.821 688.071 242.808C688.071 243.686 687.895 244.564 687.72 245.618C687.544 246.672 687.193 248.077 686.49 250.01L644.157 385.793C643.103 389.306 641.873 391.59 640.468 392.644C639.063 393.698 636.779 394.4 633.793 394.4H618.686C615.349 394.4 613.065 393.873 611.66 392.644C610.255 391.414 609.025 389.131 608.322 385.618L581.095 272.318L554.044 385.442C553.166 388.955 552.112 391.239 550.707 392.468C549.301 393.698 546.842 394.225 543.68 394.225H528.574ZM754.294 398.968C745.16 398.968 736.026 397.914 727.243 395.806C718.46 393.698 711.609 391.414 707.042 388.779C704.232 387.198 702.299 385.442 701.597 383.861C700.894 382.28 700.543 380.523 700.543 378.943V369.984C700.543 366.295 701.948 364.539 704.583 364.539C705.637 364.539 706.691 364.714 707.745 365.066C708.799 365.417 710.38 366.12 712.136 366.822C718.109 369.457 724.608 371.565 731.459 372.97C738.485 374.375 745.336 375.078 752.362 375.078C763.428 375.078 772.036 373.146 778.008 369.281C783.98 365.417 787.142 359.796 787.142 352.594C787.142 347.675 785.561 343.635 782.399 340.298C779.238 336.96 773.265 333.974 764.658 331.164L739.188 323.259C726.365 319.219 716.879 313.246 711.082 305.342C705.286 297.613 702.299 289.006 702.299 279.871C702.299 272.494 703.88 265.995 707.042 260.373C710.204 254.752 714.42 249.834 719.69 245.97C724.959 241.929 730.932 238.943 737.958 236.835C744.984 234.727 752.362 233.849 760.091 233.849C763.955 233.849 767.995 234.025 771.86 234.552C775.9 235.079 779.589 235.781 783.278 236.484C786.791 237.362 790.128 238.241 793.29 239.295C796.452 240.348 798.911 241.402 800.668 242.456C803.127 243.862 804.884 245.267 805.938 246.848C806.992 248.253 807.518 250.185 807.518 252.645V260.9C807.518 264.589 806.113 266.521 803.478 266.521C802.073 266.521 799.79 265.819 796.803 264.414C786.791 259.846 775.549 257.563 763.077 257.563C753.065 257.563 745.16 259.144 739.715 262.481C734.269 265.819 731.459 270.913 731.459 278.115C731.459 283.033 733.215 287.249 736.728 290.587C740.242 293.924 746.741 297.262 756.051 300.248L780.994 308.152C793.641 312.193 802.776 317.814 808.221 325.016C813.666 332.218 816.301 340.473 816.301 349.608C816.301 357.161 814.72 364.012 811.734 369.984C808.572 375.956 804.357 381.226 798.911 385.442C793.466 389.833 786.966 392.995 779.413 395.279C771.509 397.738 763.253 398.968 754.294 398.968Z" fill="white"/>
<path fill-rule="evenodd" clip-rule="evenodd" d="M787.494 484.337C729.703 527.022 645.738 549.682 573.543 549.682C472.364 549.682 381.198 512.267 312.34 450.084C306.894 445.165 311.813 438.49 318.312 442.355C392.791 485.567 484.66 511.74 579.691 511.74C643.806 511.74 714.245 498.39 779.063 470.987C788.724 466.596 796.98 477.311 787.494 484.337Z" fill="#FF9900"/>
<path fill-rule="evenodd" clip-rule="evenodd" d="M811.559 456.935C804.181 447.449 762.726 452.368 743.93 454.651C738.309 455.354 737.431 450.435 742.525 446.747C775.549 423.56 829.827 430.235 836.151 437.964C842.474 445.868 834.394 500.147 803.478 526.144C798.736 530.184 794.168 528.076 796.276 522.806C803.303 505.416 818.936 466.245 811.559 456.935Z" fill="#FF9900"/>
</svg>
