<svg width="1148" height="784" viewBox="0 0 1148 784" fill="none" xmlns="http://www.w3.org/2000/svg">
<g clip-path="url(#clip0_867_398)">
<path d="M111.573 388.853C112.283 390.998 110.514 393.158 108.079 393.129L55.5351 392.505C53.1724 392.476 51.2881 390.708 51.2881 388.534V364.298C51.2881 362.11 53.2159 360.327 55.5931 360.327H90.4389C97.3965 360.327 103.528 364.516 105.557 370.633L111.587 388.853H111.573Z" fill="white"/>
<path d="M146.071 397.405C145.36 395.259 147.129 393.1 149.564 393.129L202.108 393.752C204.471 393.781 206.355 395.549 206.355 397.724V421.959C206.355 424.148 204.427 425.931 202.05 425.931H167.204C160.247 425.931 154.115 421.742 152.086 415.625L146.056 397.405H146.071Z" fill="white"/>
<path d="M16.92 448.412C7.45477 440.469 1.14947 427.83 0.468203 415.422C-0.18407 403.637 -0.12609 345.629 0.468203 333.815C1.54083 312.769 16.8185 294.389 37.6333 290.316C45.388 288.794 61.289 288.736 69.3337 289.417C74.0736 289.809 79.3207 292.157 82.8865 295.259C90.8007 302.158 97.1785 323.959 107.05 325.394L215.167 325.481C238.272 327.669 256.855 345.614 258.029 369.111C258.652 381.46 258.739 440.339 258.029 452.645C256.811 473.503 240.693 491.564 220.081 494.985C213.834 496.014 191.671 496.318 185.786 494.985C171.668 491.781 167.537 476.359 160.203 465.893C156.97 461.284 153.796 459.414 148.07 459.008H40.6337C31.9947 457.501 23.6601 454.051 16.92 448.398V448.412ZM46.5621 326.379C41.5614 326.756 38.242 330.684 37.3144 335.381C38.3 346.469 36.0098 402.231 37.3578 413.045C38.0246 418.437 42.2426 422.148 47.5913 422.597L124.415 422.568C132.981 423.655 138.214 428.337 142.751 435.265C147.563 442.614 152.97 457.443 162.435 458.631H212.022C216.197 457.559 219.994 454.486 220.4 449.949C221.429 438.367 219.617 382.852 220.357 371.111C219.603 366.69 216.197 363.197 211.674 362.718L134.575 362.631C115.674 360.254 114.268 342.135 104.426 330.728C102.933 329.003 100.643 327.829 98.6135 326.843C82.3937 326.495 66.1448 326.684 49.9105 326.684C48.7509 326.684 47.9681 326.263 46.5476 326.379H46.5621Z" fill="white"/>
</g>
<g clip-path="url(#clip1_867_398)">
<path d="M438.448 353.94L465.629 351.767C465.755 351.767 465.876 351.761 465.993 351.749C485.475 351.479 505.825 353.828 522.892 363.548C523.683 363.991 524.342 364.636 524.801 365.417C525.26 366.199 525.504 367.088 525.506 367.994L525.447 446.583C525.442 447.521 525.179 448.441 524.685 449.24C524.192 450.038 523.489 450.686 522.652 451.111C496.639 464.549 466.798 463.527 438.243 460.226C437.011 460.08 435.876 459.487 435.052 458.561C434.227 457.635 433.77 456.439 433.768 455.199V359.003C433.768 356.36 435.8 354.163 438.431 353.94H438.448ZM452.82 374.872V439.183C452.82 441.825 454.84 444.028 457.472 444.251C473.076 445.543 489.022 446.219 503.599 440.081C504.518 439.69 505.301 439.034 505.848 438.198C506.395 437.362 506.681 436.382 506.671 435.383L506.418 378.501C506.419 377.502 506.123 376.525 505.567 375.694C505.012 374.862 504.223 374.215 503.3 373.832C488.834 367.936 472.947 368.582 457.507 369.809C456.234 369.911 455.047 370.489 454.182 371.427C453.316 372.365 452.837 373.595 452.838 374.872H452.82Z" fill="white"/>
<path d="M945.489 459.71H937.22C936.553 459.71 935.892 459.578 935.276 459.323C934.66 459.067 934.101 458.693 933.629 458.221C933.158 457.749 932.784 457.189 932.53 456.573C932.275 455.957 932.144 455.296 932.145 454.629V429.234C932.145 427.886 931.61 426.594 930.657 425.642C929.704 424.689 928.412 424.154 927.065 424.154H883.24C882.573 424.154 881.912 424.285 881.296 424.54C880.68 424.796 880.121 425.17 879.649 425.642C879.178 426.114 878.804 426.674 878.55 427.29C878.295 427.906 878.164 428.567 878.165 429.234V454.629C878.166 455.297 878.035 455.958 877.78 456.574C877.525 457.191 877.151 457.751 876.679 458.223C876.207 458.695 875.647 459.069 875.03 459.324C874.413 459.579 873.752 459.71 873.085 459.71H864.816C864.148 459.71 863.487 459.579 862.871 459.324C862.254 459.069 861.694 458.695 861.222 458.223C860.75 457.751 860.376 457.191 860.12 456.574C859.865 455.958 859.735 455.297 859.735 454.629V368.189C859.742 367.314 859.97 366.456 860.398 365.694C860.826 364.932 861.441 364.291 862.184 363.831C887.709 347.932 922.554 347.932 948.061 363.831C948.804 364.291 949.417 364.933 949.845 365.695C950.272 366.457 950.499 367.315 950.505 368.189V454.629C950.505 455.977 949.969 457.269 949.017 458.222C948.064 459.174 946.772 459.71 945.424 459.71H945.489ZM932.145 401.941V379.212C932.15 378.282 931.897 377.368 931.415 376.572C930.933 375.777 930.241 375.129 929.414 374.702C914.743 367.143 895.579 367.143 880.902 374.702C880.077 375.13 879.386 375.778 878.905 376.574C878.424 377.369 878.172 378.283 878.177 379.212V401.941C878.177 404.755 880.45 407.022 883.257 407.022H927.077C927.744 407.022 928.405 406.892 929.022 406.637C929.638 406.381 930.199 406.007 930.671 405.535C931.143 405.064 931.517 404.503 931.772 403.886C932.027 403.27 932.158 402.609 932.157 401.941H932.145Z" fill="white"/>
<path d="M421.082 359.396V365.756C421.083 366.424 420.952 367.085 420.697 367.701C420.442 368.318 420.068 368.878 419.596 369.35C419.124 369.822 418.564 370.196 417.947 370.451C417.331 370.706 416.67 370.837 416.002 370.836H363.303C362.636 370.836 361.975 370.966 361.359 371.221C360.743 371.476 360.182 371.849 359.711 372.321C359.239 372.792 358.865 373.352 358.609 373.968C358.354 374.584 358.222 375.244 358.222 375.911V394.341C358.222 397.148 360.495 399.415 363.303 399.415H409.013C411.821 399.415 414.093 401.688 414.093 404.495V413.71L413.154 414.65H363.297C362.629 414.649 361.967 414.78 361.35 415.036C360.733 415.291 360.173 415.666 359.701 416.138C359.229 416.611 358.855 417.172 358.6 417.789C358.345 418.407 358.215 419.068 358.216 419.736V438.16C358.216 440.968 360.489 443.24 363.297 443.24H415.996C418.804 443.24 421.077 445.507 421.077 448.321V454.675C421.077 455.343 420.946 456.004 420.691 456.62C420.436 457.237 420.062 457.798 419.59 458.269C419.118 458.741 418.558 459.115 417.941 459.371C417.325 459.626 416.664 459.756 415.996 459.756H344.262C343.595 459.756 342.934 459.626 342.317 459.371C341.7 459.115 341.14 458.741 340.668 458.269C340.196 457.798 339.822 457.237 339.567 456.62C339.312 456.004 339.181 455.343 339.182 454.675V359.431C339.182 356.623 341.455 354.351 344.262 354.351H416.002C418.81 354.351 421.082 356.623 421.082 359.431V359.396Z" fill="white"/>
<path d="M1148 359.396V365.757C1148 366.424 1147.87 367.085 1147.62 367.702C1147.36 368.318 1146.99 368.879 1146.52 369.351C1146.04 369.823 1145.48 370.197 1144.87 370.452C1144.25 370.707 1143.59 370.838 1142.92 370.837H1090.22C1089.55 370.836 1088.89 370.967 1088.28 371.221C1087.66 371.476 1087.1 371.85 1086.63 372.321C1086.16 372.792 1085.78 373.352 1085.53 373.968C1085.27 374.584 1085.14 375.244 1085.14 375.911V394.335C1085.14 397.149 1087.41 399.416 1090.22 399.416H1135.3C1138.11 399.416 1140.38 401.688 1140.38 404.496V409.594C1140.38 410.941 1139.85 412.233 1138.9 413.186C1137.94 414.139 1136.65 414.674 1135.3 414.674H1090.22C1089.55 414.673 1088.89 414.804 1088.28 415.059C1087.66 415.313 1087.1 415.687 1086.63 416.158C1086.16 416.629 1085.78 417.189 1085.53 417.805C1085.27 418.421 1085.14 419.081 1085.14 419.748V438.172C1085.14 440.986 1087.41 443.253 1090.22 443.253H1142.92C1145.73 443.253 1148 445.526 1148 448.333V454.693C1148 455.36 1147.87 456.021 1147.61 456.637C1147.36 457.253 1146.98 457.812 1146.51 458.284C1146.04 458.755 1145.48 459.129 1144.86 459.383C1144.25 459.638 1143.59 459.769 1142.92 459.768H1071.18C1070.51 459.769 1069.85 459.638 1069.24 459.383C1068.62 459.129 1068.06 458.755 1067.59 458.284C1067.12 457.812 1066.74 457.253 1066.49 456.637C1066.23 456.021 1066.1 455.36 1066.1 454.693V359.443C1066.1 356.636 1068.37 354.369 1071.18 354.369H1142.92C1145.73 354.369 1148 356.636 1148 359.443V359.396Z" fill="white"/>
<path d="M724.535 359.396V365.757C724.536 366.424 724.405 367.085 724.15 367.702C723.895 368.318 723.521 368.879 723.049 369.351C722.577 369.823 722.017 370.197 721.4 370.452C720.783 370.707 720.122 370.838 719.455 370.837H666.127C665.459 370.835 664.798 370.965 664.181 371.22C663.564 371.474 663.004 371.848 662.531 372.319C662.059 372.79 661.684 373.35 661.428 373.967C661.172 374.583 661.041 375.244 661.041 375.911V394.335C661.041 397.149 663.314 399.416 666.121 399.416H711.837C714.645 399.416 716.918 401.688 716.918 404.496V409.594C716.918 410.261 716.788 410.922 716.533 411.539C716.277 412.155 715.903 412.716 715.431 413.188C714.959 413.66 714.399 414.034 713.782 414.289C713.166 414.544 712.505 414.675 711.837 414.674H666.121C665.454 414.673 664.794 414.804 664.177 415.059C663.561 415.313 663.001 415.687 662.529 416.158C662.057 416.629 661.683 417.189 661.427 417.805C661.172 418.421 661.041 419.081 661.041 419.748V438.172C661.041 440.986 663.314 443.253 666.121 443.253H719.455C722.262 443.253 724.535 445.526 724.535 448.333V454.693C724.535 455.36 724.404 456.021 724.148 456.637C723.893 457.253 723.519 457.812 723.047 458.284C722.575 458.755 722.015 459.129 721.399 459.383C720.782 459.638 720.122 459.769 719.455 459.768H647.715C647.048 459.769 646.387 459.638 645.771 459.383C645.155 459.129 644.594 458.755 644.123 458.284C643.651 457.812 643.276 457.253 643.021 456.637C642.766 456.021 642.634 455.36 642.634 454.693V359.443C642.634 356.636 644.907 354.369 647.715 354.369H719.455C722.262 354.369 724.535 356.636 724.535 359.443V359.396Z" fill="white"/>
<path d="M1049.6 368.77C1049.6 369.567 1049.41 370.352 1049.05 371.064C1048.69 371.775 1048.17 372.391 1047.53 372.861C1046.89 373.332 1046.14 373.644 1045.36 373.772C1044.57 373.9 1043.76 373.84 1043.01 373.598C1027.25 368.606 1009.62 366.826 993.883 371.924C991.299 372.758 985.144 374.649 984.815 377.462C984.404 380.992 984.844 385.174 984.956 389.085C984.985 390.21 985.388 391.292 986.102 392.161C986.816 393.031 987.8 393.637 988.897 393.884L1045.33 406.687C1046.44 406.937 1047.43 407.554 1048.14 408.439C1048.86 409.324 1049.25 410.424 1049.27 411.562C1049.41 422.21 1050.75 446.853 1049.01 449.267C1048.69 449.725 1044.05 452.309 1043.05 452.815C1020.76 464.443 994.259 464.455 970.649 457.055C969.612 456.736 968.705 456.091 968.063 455.216C967.421 454.341 967.078 453.283 967.084 452.198V445.608C967.084 442.26 970.285 439.8 973.503 440.716C992.339 446.078 1012.83 447.893 1030.81 438.807L1031.25 437.809L1030.75 423.889C1030.71 422.768 1030.3 421.69 1029.59 420.826C1028.87 419.963 1027.89 419.363 1026.79 419.12L971.107 406.564C969.983 406.31 968.978 405.682 968.257 404.783C967.537 403.883 967.144 402.765 967.143 401.613L967.178 367.507C967.178 365.646 968.218 363.925 969.856 363.026C992.955 350.34 1021.76 348.149 1046.35 357.711C1047.31 358.082 1048.13 358.733 1048.71 359.58C1049.3 360.426 1049.61 361.429 1049.61 362.456V368.741L1049.6 368.77Z" fill="white"/>
<path d="M627.412 362.379V369.104C627.412 372.511 624.118 374.96 620.852 373.967C616.165 372.528 611.479 371.124 606.592 370.402C592.708 368.346 575.829 368.288 562.972 374.819C562.143 375.252 561.449 375.904 560.966 376.705C560.482 377.505 560.228 378.423 560.23 379.359L560.418 435.741C560.418 437.661 561.51 439.441 563.243 440.281C576.351 446.577 592.268 446.154 606.34 442.947C607.46 442.692 608.46 442.062 609.174 441.162C609.889 440.262 610.275 439.145 610.269 437.996V414.034C610.269 411.226 612.536 408.953 615.343 408.953H622.332C625.139 408.953 627.412 411.226 627.412 414.034V450.189C627.422 451.098 627.183 451.993 626.722 452.776C626.26 453.56 625.593 454.202 624.793 454.634C618.914 457.777 611.637 459.568 605.206 460.725C584.298 464.448 562.027 461.97 543.714 451.034C542.955 450.578 542.325 449.935 541.886 449.165C541.447 448.396 541.213 447.527 541.207 446.641L541.383 368C541.383 366.191 542.358 364.517 543.938 363.601C567.771 349.664 597.947 349.006 623.883 357.569C624.904 357.904 625.794 358.553 626.426 359.423C627.057 360.293 627.399 361.34 627.401 362.415L627.412 362.379Z" fill="white"/>
<path d="M848.352 374.954L847.054 375.63C844.978 374.608 842.806 373.794 840.57 373.198C825.206 368.829 807.857 367.079 792.492 372.447C791.212 372.887 786.103 374.89 785.468 375.583C783.372 377.932 785.803 430.479 784.793 437.826L785.233 438.825C800.456 446.19 817.348 446.301 833.616 442.766C836.406 442.167 839.09 441.239 841.78 440.399C842.538 440.167 843.34 440.117 844.122 440.252C844.903 440.387 845.642 440.703 846.279 441.175C846.916 441.648 847.433 442.263 847.789 442.972C848.145 443.68 848.33 444.463 848.328 445.256V452.233C848.33 453.244 848.029 454.232 847.464 455.069C846.898 455.907 846.095 456.556 845.157 456.932C843.9 457.401 842.543 457.736 841.339 458.112C817.083 465.465 790.736 463.081 768.595 450.988C767.782 450.554 767.102 449.908 766.627 449.119C766.151 448.331 765.898 447.428 765.893 446.507V367.572C765.893 365.675 766.95 363.96 768.624 363.055C790.754 351.192 816.431 348.749 840.711 355.914C842.103 356.325 843.659 356.736 845.116 357.3C847.054 358.057 848.328 359.937 848.328 362.034V374.954H848.352Z" fill="white"/>
</g>
<defs>
<clipPath id="clip0_867_398">
<rect width="258.529" height="206.873" fill="white" transform="translate(0 289)"/>
</clipPath>
<clipPath id="clip1_867_398">
<rect width="808.818" height="117.22" fill="white" transform="translate(339.182 348.429)"/>
</clipPath>
</defs>
</svg>
