<svg width="1148" height="784" viewBox="0 0 1148 784" fill="none" xmlns="http://www.w3.org/2000/svg">
<g clip-path="url(#clip0_867_641)">
<path d="M134.443 504.868C196.534 504.868 246.869 454.533 246.869 392.442C246.869 330.351 196.534 280.016 134.443 280.016C72.3514 280.016 22.0166 330.351 22.0166 392.442C22.0166 454.533 72.3514 504.868 134.443 504.868Z" fill="white"/>
<path d="M192.568 296.174L169.099 318.817V442.312V499.41C214.234 484.803 246.869 442.414 246.869 392.426C246.869 351.603 225.118 315.869 192.568 296.174Z" fill="url(#paint0_linear_867_641)"/>
<path d="M126.34 376.572C120.578 376.572 116.063 378.813 112.828 383.294C109.593 387.776 107.976 393.925 107.976 401.743C107.976 409.071 109.542 414.715 112.676 418.692C115.81 422.651 120.14 424.639 125.7 424.639C131.259 424.639 135.269 422.55 138.588 418.371C141.907 414.193 143.575 408.65 143.575 401.759V395.492C143.575 390.067 141.975 385.552 138.79 381.963C135.606 378.375 131.462 376.589 126.357 376.589L126.34 376.572Z" fill="#2563EB"/>
<path d="M142.732 368.434L142.682 368.35V344.325L169.099 318.834L128.647 357.871C134.999 359.454 139.7 362.975 142.732 368.451V368.434Z" fill="#2563EB"/>
<path d="M128.647 357.854L81.5234 403.326L128.647 357.854Z" fill="white"/>
<path d="M134.442 280C155.704 280 175.603 285.913 192.568 296.174L128.647 357.854C126.036 357.197 123.155 356.86 119.987 356.86C108.514 356.86 99.2306 361.021 92.1377 369.327C92.0101 369.477 91.886 369.63 91.7607 369.781C87.5378 374.877 84.62 380.981 83.0068 388.097C82.0067 392.504 81.5068 397.299 81.5068 402.484H81.5078V403.326L81.5234 403.311V403.326L36.1523 447.098C27.1387 430.924 22 412.289 22 392.442C22.0002 330.341 72.3414 280 134.442 280Z" fill="url(#paint1_linear_867_641)"/>
<path d="M81.5234 403.342C81.6632 416.668 84.8652 426.093 91.1611 433.298C91.3397 433.503 91.5205 433.703 91.7021 433.902C98.0569 440.873 106.372 444.351 116.635 444.351C128.108 444.351 136.819 439.836 142.749 430.823H143.053V442.295H143.069V442.313L143.086 442.33H169.116V499.427C158.199 502.965 146.54 504.869 134.443 504.869C92.1888 504.869 55.3765 481.551 36.1699 447.097L81.5234 403.342Z" fill="#2563EB"/>
<path d="M1030.31 343.281C1027.45 341.731 1024.1 340.972 1020.27 340.972C1015.08 340.972 1011.04 342.842 1008.11 346.6C1005.19 350.357 1003.73 355.478 1003.73 361.931V398.441H979.87V322.002H1003.73V336.188H1004.03C1007.8 325.843 1014.59 320.654 1024.42 320.654C1026.93 320.654 1028.9 320.957 1030.31 321.547V343.264V343.281Z" fill="white"/>
<path d="M956.418 329.667C950.252 322.962 941.525 319.609 930.254 319.609C918.982 319.609 910.221 323.366 902.775 330.88C895.328 338.394 891.604 348.57 891.604 361.442C891.604 374.314 895.058 383.513 901.949 390.454C908.84 397.396 918.527 400.849 931.029 400.849C936.824 400.849 942.047 400.361 946.748 399.367L958.895 377.869C952.442 381.896 944.979 383.9 936.47 383.9C923.127 383.9 916.051 378.29 915.242 367.036H965.685V356.978C965.685 345.487 962.601 336.389 956.435 329.684L956.418 329.667ZM915.09 352.361C915.697 347.627 917.399 343.668 920.178 340.483C922.975 337.299 926.277 335.715 930.102 335.715C939.065 335.715 943.546 341.258 943.546 352.361H915.074H915.09Z" fill="white"/>
<path d="M877.316 398.44H853.527V355.967C853.527 344.123 849.248 338.192 840.689 338.192C836.561 338.192 833.158 339.759 830.496 342.893C827.834 346.027 826.503 350.003 826.503 354.838V398.44H802.646V322.001H826.503V334.098H826.806C832.484 324.798 840.773 320.131 851.64 320.131C868.758 320.131 877.316 330.628 877.316 351.637V398.44Z" fill="white"/>
<path d="M782.547 322.001H758.69V398.44H782.547V322.001Z" fill="white"/>
<path d="M770.772 313.14C766.746 313.14 763.443 311.792 760.883 309.113C758.322 306.434 757.024 303.149 757.024 299.257C757.024 295.365 758.305 291.979 760.883 289.452C763.443 286.924 766.746 285.644 770.772 285.644C774.799 285.644 778.169 286.908 780.696 289.452C783.24 291.996 784.52 295.264 784.52 299.257C784.52 303.25 783.24 306.653 780.696 309.231C778.152 311.826 774.849 313.123 770.772 313.123V313.14Z" fill="white"/>
<path d="M739.822 398.441H716.033V354.838C716.033 343.735 711.905 338.193 703.65 338.193C699.724 338.193 696.523 339.86 694.063 343.196C691.587 346.532 690.357 350.694 690.357 355.664V398.441H666.5V354.4C666.5 343.601 662.44 338.209 654.353 338.209C650.276 338.209 647.007 339.81 644.564 342.977C642.121 346.162 640.908 350.491 640.908 355.967V398.441H617.052V322.002H640.908V333.947H641.212C643.671 329.87 647.142 326.551 651.59 323.99C656.038 321.429 660.924 320.148 666.197 320.148C677.114 320.148 684.595 324.9 688.622 334.402C694.518 324.9 703.161 320.148 714.601 320.148C731.415 320.148 739.822 330.392 739.822 350.896V398.441Z" fill="white"/>
<path d="M598.148 398.44H575.571V387.472H575.268C570.079 396.031 562.396 400.31 552.237 400.31C544.74 400.31 538.826 398.204 534.53 393.993C530.234 389.781 528.077 384.17 528.077 377.161C528.077 362.335 536.956 353.777 554.731 351.485L575.723 348.722C575.723 340.366 571.14 336.187 561.975 336.187C552.81 336.187 543.998 338.9 535.692 344.325V326.55C539.011 324.866 543.56 323.366 549.322 322.069C555.084 320.772 560.324 320.131 565.058 320.131C587.112 320.131 598.131 330.998 598.131 352.749V398.44H598.148ZM575.723 367.39V362.234L561.672 364.02C553.922 365.014 550.047 368.485 550.047 374.398C550.047 377.094 550.99 379.284 552.877 381.003C554.764 382.721 557.325 383.581 560.543 383.581C565.025 383.581 568.664 382.047 571.494 378.981C574.308 375.915 575.723 372.057 575.723 367.373V367.39Z" fill="white"/>
<path d="M520.379 397.547C516.858 399.384 511.551 400.31 504.441 400.31C487.627 400.31 479.219 391.684 479.219 374.398V339.388H466.685V322.001H479.219V308.624L503.009 285.273V322.001H520.379V339.388H503.009V370.287C503.009 378.256 506.21 382.233 512.595 382.233C515.105 382.233 517.7 381.508 520.379 380.076V397.547Z" fill="white"/>
<path d="M454.756 398.44H432.18V387.472H431.876C426.687 396.031 419.022 400.31 408.845 400.31C401.348 400.31 395.435 398.204 391.138 393.993C386.825 389.781 384.686 384.17 384.686 377.161C384.686 362.335 393.564 353.777 411.339 351.485L432.331 348.722C432.331 340.366 427.749 336.187 418.584 336.187C409.418 336.187 400.607 338.9 392.301 344.325V326.55C395.62 324.866 400.169 323.366 405.931 322.069C411.693 320.772 416.949 320.131 421.667 320.131C443.721 320.131 454.739 330.998 454.739 352.749V398.44H454.756ZM432.331 367.39V362.234L418.28 364.02C410.53 365.014 406.655 368.485 406.655 374.398C406.655 377.094 407.599 379.284 409.486 381.003C411.373 382.721 413.933 383.581 417.151 383.581C421.633 383.581 425.272 382.047 428.103 378.981C430.916 375.915 432.331 372.057 432.331 367.373V367.39Z" fill="white"/>
<path d="M347.788 330.745L347.754 330.661V308.641L371.965 285.29V398.457H348.108V387.927H347.805C342.363 396.182 334.394 400.327 323.864 400.327C314.193 400.327 306.426 396.957 300.529 390.201C294.65 383.462 291.701 374.044 291.701 361.947C291.701 349.851 294.953 339.186 301.439 331.571C307.926 323.955 316.434 320.148 326.964 320.148C336.938 320.148 343.879 323.686 347.805 330.745M348.546 361.274V355.528C348.546 350.558 347.08 346.414 344.166 343.145C341.251 339.86 337.443 338.209 332.759 338.209C327.469 338.209 323.342 340.264 320.376 344.358C317.411 348.469 315.928 354.096 315.928 361.274C315.928 367.996 317.361 373.168 320.225 376.807C323.089 380.446 327.065 382.249 332.153 382.249C337.241 382.249 340.931 380.329 343.963 376.504C347.013 372.663 348.529 367.592 348.529 361.274H348.546Z" fill="white"/>
<path d="M297.277 474.997V428.16H302.669V445.446H303.124C303.511 444.84 304.067 444.048 304.775 443.104C305.482 442.161 306.51 441.302 307.841 440.543C309.172 439.785 310.992 439.415 313.266 439.415C316.231 439.415 318.826 440.156 321.083 441.638C323.341 443.121 325.093 445.21 326.374 447.923C327.637 450.635 328.277 453.836 328.277 457.526C328.277 461.216 327.637 464.467 326.374 467.197C325.11 469.909 323.358 472.015 321.117 473.515C318.876 474.997 316.299 475.739 313.367 475.739C311.109 475.739 309.307 475.368 307.942 474.61C306.577 473.852 305.533 472.992 304.808 472.032C304.084 471.072 303.511 470.263 303.124 469.623H302.483V475.014H297.277V474.997ZM302.584 457.442C302.584 460.087 302.972 462.429 303.747 464.451C304.522 466.472 305.651 468.056 307.15 469.185C308.65 470.314 310.469 470.886 312.643 470.886C314.816 470.886 316.787 470.297 318.304 469.084C319.82 467.887 320.965 466.27 321.74 464.231C322.515 462.193 322.903 459.935 322.903 457.425C322.903 454.915 322.532 452.724 321.774 450.736C321.016 448.748 319.887 447.165 318.371 446.002C316.855 444.84 314.951 444.25 312.659 444.25C310.368 444.25 308.616 444.806 307.117 445.901C305.617 446.996 304.488 448.546 303.73 450.517C302.972 452.489 302.584 454.797 302.584 457.408V457.442Z" fill="white"/>
<path d="M338.724 488.172C337.814 488.172 336.988 488.105 336.281 487.953C335.556 487.802 335.068 487.667 334.798 487.532L336.163 482.781C337.477 483.118 338.639 483.236 339.633 483.152C340.644 483.067 341.537 482.612 342.329 481.821C343.121 481.012 343.829 479.731 344.486 477.946L345.497 475.199L332.507 439.886H338.37L348.057 467.871H348.428L358.116 439.886H363.979L349.068 480.136C348.394 481.955 347.569 483.455 346.575 484.651C345.581 485.847 344.435 486.74 343.138 487.313C341.841 487.886 340.375 488.189 338.741 488.189L338.724 488.172Z" fill="white"/>
<path d="M415.55 439.869C415.28 437.544 414.168 435.758 412.214 434.478C410.26 433.198 407.867 432.557 405.037 432.557C402.965 432.557 401.145 432.894 399.612 433.568C398.062 434.242 396.866 435.169 396.006 436.331C395.147 437.511 394.709 438.842 394.709 440.341C394.709 441.588 395.012 442.666 395.619 443.559C396.225 444.452 397 445.193 397.944 445.783C398.887 446.373 399.881 446.844 400.909 447.232C401.954 447.602 402.897 447.906 403.773 448.142L408.524 449.422C409.737 449.742 411.102 450.18 412.602 450.753C414.101 451.326 415.55 452.084 416.915 453.044C418.279 454.005 419.442 455.251 420.335 456.768C421.228 458.284 421.683 460.137 421.683 462.328C421.683 464.855 421.026 467.146 419.711 469.185C418.397 471.223 416.477 472.857 413.949 474.054C411.422 475.25 408.373 475.856 404.767 475.856C401.415 475.856 398.517 475.317 396.074 474.239C393.631 473.161 391.71 471.644 390.312 469.707C388.913 467.769 388.122 465.529 387.953 462.968H393.816C393.968 464.737 394.574 466.203 395.619 467.348C396.663 468.494 397.994 469.353 399.595 469.909C401.196 470.465 402.931 470.751 404.801 470.751C406.958 470.751 408.912 470.398 410.63 469.69C412.349 468.982 413.714 467.988 414.724 466.725C415.735 465.444 416.241 463.962 416.241 462.26C416.241 460.71 415.803 459.447 414.943 458.469C414.067 457.492 412.939 456.7 411.506 456.094C410.091 455.487 408.558 454.948 406.907 454.493L401.145 452.842C397.489 451.798 394.591 450.281 392.452 448.344C390.312 446.389 389.25 443.845 389.25 440.678C389.25 438.05 389.958 435.758 391.39 433.804C392.822 431.85 394.743 430.317 397.152 429.238C399.561 428.143 402.274 427.604 405.256 427.604C408.238 427.604 410.95 428.143 413.309 429.221C415.651 430.3 417.521 431.765 418.903 433.619C420.284 435.472 421.009 437.595 421.093 439.954H415.6L415.55 439.869Z" fill="white"/>
<path d="M430.292 474.997V428.16H435.683V474.997H430.292ZM435.313 462.193L435.228 455.521H436.324L451.689 439.886H458.361L441.984 456.448H441.53L435.313 462.21V462.193ZM452.599 474.997L438.884 457.61L442.726 453.853L459.473 474.98H452.615L452.599 474.997Z" fill="white"/>
<path d="M468.789 488.172C467.879 488.172 467.054 488.105 466.346 487.953C465.622 487.802 465.133 487.667 464.864 487.532L466.228 482.781C467.542 483.118 468.705 483.236 469.699 483.152C470.71 483.067 471.603 482.612 472.395 481.821C473.186 481.012 473.894 479.731 474.551 477.946L475.562 475.199L462.572 439.886H468.435L478.123 467.871H478.494L488.181 439.886H494.044L479.134 480.136C478.46 481.955 477.634 483.455 476.64 484.651C475.646 485.847 474.501 486.74 473.203 487.313C471.906 487.886 470.44 488.189 468.806 488.189L468.789 488.172Z" fill="white"/>
<path d="M506.561 428.16V474.997H501.17V428.16H506.561Z" fill="white"/>
<path d="M519.199 434.023C518.154 434.023 517.244 433.67 516.486 432.945C515.728 432.238 515.357 431.361 515.357 430.367C515.357 429.373 515.728 428.497 516.486 427.79C517.244 427.082 518.137 426.711 519.199 426.711C520.26 426.711 521.153 427.065 521.911 427.79C522.669 428.514 523.04 429.373 523.04 430.367C523.04 431.361 522.669 432.238 521.911 432.945C521.153 433.67 520.26 434.023 519.199 434.023ZM516.453 474.997V439.87H521.844V474.997H516.453Z" fill="white"/>
<path d="M537.124 453.87V474.997H531.732V439.869H536.938V445.362H537.393C538.219 443.576 539.466 442.144 541.15 441.049C542.835 439.954 544.992 439.415 547.654 439.415C550.029 439.415 552.118 439.903 553.904 440.863C555.69 441.824 557.072 443.29 558.066 445.261C559.06 447.215 559.548 449.692 559.548 452.674V474.997H554.157V453.044C554.157 450.281 553.433 448.125 552 446.592C550.568 445.042 548.597 444.267 546.104 444.267C544.385 444.267 542.852 444.637 541.504 445.396C540.156 446.137 539.095 447.232 538.32 448.664C537.545 450.096 537.157 451.831 537.157 453.87H537.124Z" fill="white"/>
<path d="M584.145 475.722C580.759 475.722 577.844 474.963 575.401 473.464C572.958 471.964 571.071 469.858 569.757 467.146C568.443 464.433 567.786 461.283 567.786 457.694C567.786 454.106 568.443 450.921 569.757 448.175C571.071 445.429 572.925 443.272 575.3 441.722C577.676 440.172 580.439 439.397 583.606 439.397C585.443 439.397 587.245 439.701 589.031 440.307C590.817 440.914 592.435 441.908 593.9 443.272C595.366 444.637 596.529 446.44 597.405 448.681C598.281 450.921 598.702 453.684 598.702 456.953V459.244H571.627V454.577H593.21C593.21 452.589 592.822 450.82 592.03 449.27C591.238 447.72 590.126 446.49 588.694 445.597C587.262 444.705 585.561 444.25 583.606 444.25C581.45 444.25 579.596 444.772 578.046 445.833C576.48 446.895 575.283 448.276 574.441 449.961C573.599 451.646 573.177 453.465 573.177 455.403V458.52C573.177 461.165 573.632 463.423 574.559 465.259C575.486 467.095 576.766 468.494 578.417 469.437C580.068 470.398 581.972 470.869 584.162 470.869C585.578 470.869 586.858 470.667 588.02 470.263C589.183 469.858 590.16 469.252 591.003 468.426C591.845 467.618 592.485 466.59 592.94 465.377L598.146 466.843C597.59 468.612 596.68 470.162 595.383 471.493C594.086 472.824 592.485 473.868 590.581 474.61C588.678 475.351 586.538 475.722 584.162 475.722H584.145Z" fill="white"/>
<path d="M663.449 442.801H657.771C657.434 441.167 656.845 439.735 656.019 438.505C655.194 437.275 654.183 436.231 653.004 435.388C651.824 434.546 650.51 433.906 649.078 433.484C647.646 433.063 646.146 432.844 644.596 432.844C641.766 432.844 639.188 433.569 636.897 435.001C634.606 436.433 632.786 438.539 631.438 441.336C630.09 444.132 629.416 447.552 629.416 451.596C629.416 455.639 630.09 459.076 631.438 461.856C632.786 464.653 634.606 466.759 636.897 468.191C639.188 469.623 641.749 470.348 644.596 470.348C646.146 470.348 647.646 470.129 649.078 469.707C650.51 469.286 651.824 468.646 653.004 467.804C654.183 466.961 655.194 465.917 656.019 464.67C656.845 463.423 657.434 461.991 657.771 460.374H663.449C663.028 462.766 662.236 464.906 661.124 466.793C659.995 468.68 658.597 470.28 656.912 471.611C655.227 472.925 653.357 473.936 651.268 474.627C649.179 475.318 646.972 475.655 644.596 475.655C640.603 475.655 637.049 474.678 633.932 472.723C630.815 470.769 628.372 467.989 626.586 464.4C624.8 460.795 623.907 456.532 623.907 451.596C623.907 446.659 624.8 442.38 626.586 438.792C628.372 435.203 630.815 432.423 633.932 430.469C637.049 428.514 640.587 427.537 644.596 427.537C646.955 427.537 649.179 427.874 651.268 428.565C653.357 429.256 655.227 430.25 656.912 431.581C658.597 432.895 659.995 434.495 661.124 436.382C662.253 438.269 663.028 440.409 663.449 442.818V442.801Z" fill="white"/>
<path d="M686.126 475.722C682.959 475.722 680.179 474.964 677.787 473.464C675.394 471.948 673.541 469.842 672.21 467.129C670.879 464.417 670.205 461.249 670.205 457.61C670.205 453.971 670.879 450.753 672.21 448.024C673.541 445.294 675.411 443.172 677.787 441.672C680.179 440.156 682.959 439.415 686.126 439.415C689.294 439.415 692.074 440.173 694.466 441.672C696.858 443.188 698.712 445.294 700.043 448.024C701.374 450.753 702.048 453.954 702.048 457.61C702.048 461.266 701.374 464.417 700.043 467.129C698.712 469.842 696.842 471.948 694.466 473.464C692.091 474.98 689.294 475.722 686.126 475.722ZM686.126 470.886C688.536 470.886 690.524 470.263 692.074 469.033C693.624 467.803 694.786 466.169 695.527 464.164C696.269 462.159 696.656 459.969 696.656 457.627C696.656 455.285 696.286 453.095 695.527 451.056C694.786 449.035 693.624 447.384 692.074 446.137C690.524 444.89 688.536 444.267 686.126 444.267C683.717 444.267 681.729 444.89 680.179 446.137C678.629 447.384 677.467 449.035 676.725 451.056C675.984 453.078 675.596 455.268 675.596 457.627C675.596 459.986 675.967 462.159 676.725 464.164C677.467 466.169 678.629 467.803 680.179 469.033C681.729 470.263 683.717 470.886 686.126 470.886Z" fill="white"/>
<path d="M710.286 474.997V439.869H715.492V445.362H715.947C716.672 443.492 717.851 442.026 719.485 440.981C721.12 439.937 723.074 439.415 725.365 439.415C727.657 439.415 729.611 439.937 731.161 440.981C732.711 442.026 733.924 443.492 734.783 445.362H735.154C736.047 443.542 737.395 442.11 739.197 441.032C741 439.954 743.157 439.415 745.667 439.415C748.801 439.415 751.378 440.392 753.366 442.346C755.371 444.3 756.365 447.35 756.365 451.478V474.98H750.974V451.478C750.974 448.883 750.266 447.03 748.851 445.918C747.436 444.806 745.768 444.25 743.847 444.25C741.371 444.25 739.467 444.991 738.102 446.474C736.754 447.956 736.064 449.843 736.064 452.118V474.98H730.571V450.922C730.571 448.917 729.931 447.316 728.634 446.086C727.336 444.856 725.669 444.25 723.63 444.25C722.232 444.25 720.917 444.621 719.704 445.379C718.491 446.12 717.514 447.165 716.773 448.479C716.032 449.793 715.661 451.326 715.661 453.044V474.997H710.27H710.286Z" fill="white"/>
<path d="M766.254 474.997V439.869H771.46V445.362H771.915C772.639 443.492 773.819 442.026 775.453 440.981C777.087 439.937 779.042 439.415 781.333 439.415C783.624 439.415 785.579 439.937 787.129 440.981C788.679 442.026 789.892 443.492 790.751 445.362H791.122C792.015 443.542 793.362 442.11 795.165 441.032C796.968 439.954 799.124 439.415 801.635 439.415C804.768 439.415 807.346 440.392 809.334 442.346C811.339 444.3 812.333 447.35 812.333 451.478V474.98H806.942V451.478C806.942 448.883 806.234 447.03 804.819 445.918C803.404 444.806 801.736 444.25 799.815 444.25C797.339 444.25 795.435 444.991 794.07 446.474C792.722 447.956 792.031 449.843 792.031 452.118V474.98H786.539V450.922C786.539 448.917 785.899 447.316 784.602 446.086C783.304 444.856 781.636 444.25 779.598 444.25C778.199 444.25 776.885 444.621 775.672 445.379C774.459 446.12 773.482 447.165 772.741 448.479C771.999 449.793 771.629 451.326 771.629 453.044V474.997H766.237H766.254Z" fill="white"/>
<path d="M844.38 460.643V439.886H849.771V475.014H844.38V469.067H844.009C843.183 470.853 841.903 472.369 840.168 473.599C838.432 474.846 836.242 475.469 833.58 475.469C831.39 475.469 829.436 474.98 827.717 474.02C826.015 473.06 824.668 471.594 823.69 469.623C822.713 467.668 822.225 465.192 822.225 462.21V439.886H827.616V461.839C827.616 464.4 828.34 466.439 829.772 467.972C831.205 469.488 833.058 470.263 835.299 470.263C836.646 470.263 838.011 469.926 839.409 469.235C840.808 468.544 841.97 467.5 842.931 466.085C843.891 464.669 844.363 462.867 844.363 460.66L844.38 460.643Z" fill="white"/>
<path d="M865.052 453.87V474.997H859.66V439.869H864.866V445.362H865.321C866.147 443.576 867.393 442.144 869.078 441.049C870.763 439.954 872.919 439.415 875.581 439.415C877.957 439.415 880.046 439.903 881.832 440.863C883.618 441.824 884.999 443.29 885.993 445.261C886.987 447.215 887.476 449.692 887.476 452.674V474.997H882.085V453.044C882.085 450.281 881.36 448.125 879.928 446.592C878.496 445.042 876.525 444.267 874.031 444.267C872.313 444.267 870.78 444.637 869.432 445.396C868.084 446.137 867.023 447.232 866.248 448.664C865.473 450.096 865.085 451.831 865.085 453.87H865.052Z" fill="white"/>
<path d="M900.078 434.023C899.033 434.023 898.123 433.67 897.365 432.945C896.607 432.238 896.236 431.361 896.236 430.367C896.236 429.373 896.607 428.497 897.365 427.79C898.123 427.082 899.016 426.711 900.078 426.711C901.139 426.711 902.032 427.065 902.79 427.79C903.548 428.514 903.919 429.373 903.919 430.367C903.919 431.361 903.548 432.238 902.79 432.945C902.032 433.67 901.139 434.023 900.078 434.023ZM897.331 474.997V439.87H902.723V474.997H897.331Z" fill="white"/>
<path d="M926.883 475.722C923.598 475.722 920.75 474.947 918.375 473.397C915.999 471.847 914.163 469.707 912.883 466.977C911.602 464.248 910.962 461.131 910.962 457.627C910.962 454.123 911.619 450.905 912.933 448.175C914.247 445.446 916.1 443.289 918.476 441.756C920.852 440.206 923.615 439.431 926.782 439.431C929.259 439.431 931.483 439.886 933.454 440.796C935.442 441.706 937.059 442.986 938.323 444.637C939.586 446.288 940.378 448.209 940.682 450.399H935.29C934.886 448.799 933.959 447.383 932.561 446.137C931.146 444.89 929.259 444.267 926.883 444.267C924.777 444.267 922.941 444.806 921.357 445.901C919.773 446.996 918.56 448.529 917.684 450.5C916.808 452.471 916.37 454.78 916.37 457.442C916.37 460.104 916.808 462.513 917.667 464.535C918.527 466.539 919.756 468.106 921.323 469.218C922.907 470.33 924.76 470.886 926.883 470.886C928.282 470.886 929.562 470.65 930.708 470.162C931.853 469.673 932.814 468.966 933.605 468.056C934.397 467.146 934.953 466.051 935.29 464.77H940.682C940.378 466.843 939.62 468.713 938.424 470.364C937.228 472.015 935.644 473.329 933.69 474.289C931.735 475.25 929.461 475.738 926.866 475.738L926.883 475.722Z" fill="white"/>
<path d="M958.894 475.823C956.67 475.823 954.648 475.402 952.829 474.559C951.009 473.717 949.577 472.487 948.516 470.87C947.454 469.269 946.915 467.315 946.915 465.023C946.915 463.018 947.303 461.384 948.111 460.121C948.903 458.857 949.965 457.88 951.296 457.155C952.627 456.431 954.092 455.909 955.693 455.538C957.293 455.184 958.928 454.898 960.545 454.679C962.685 454.409 964.42 454.19 965.751 454.055C967.082 453.904 968.059 453.668 968.683 453.314C969.306 452.96 969.609 452.354 969.609 451.478V451.292C969.609 449.035 969.003 447.283 967.773 446.036C966.543 444.789 964.69 444.166 962.196 444.166C959.703 444.166 957.597 444.722 956.131 445.85C954.665 446.979 953.637 448.175 953.048 449.456L947.926 447.619C948.836 445.48 950.066 443.812 951.599 442.616C953.132 441.419 954.817 440.577 956.636 440.105C958.456 439.617 960.259 439.381 962.028 439.381C963.156 439.381 964.454 439.516 965.92 439.785C967.385 440.055 968.817 440.594 970.199 441.419C971.58 442.245 972.726 443.492 973.636 445.143C974.546 446.811 975.001 449.035 975.001 451.815V474.964H969.609V470.213H969.34C968.969 470.971 968.362 471.796 967.503 472.655C966.644 473.532 965.515 474.256 964.1 474.879C962.685 475.486 960.949 475.789 958.911 475.789L958.894 475.823ZM959.719 470.971C961.859 470.971 963.662 470.549 965.128 469.707C966.593 468.865 967.705 467.786 968.464 466.455C969.222 465.124 969.592 463.726 969.592 462.277V457.341C969.356 457.61 968.868 457.863 968.093 458.082C967.318 458.301 966.442 458.486 965.448 458.655C964.454 458.823 963.477 458.958 962.55 459.059C961.606 459.177 960.848 459.261 960.275 459.346C958.877 459.531 957.563 459.817 956.35 460.222C955.137 460.626 954.16 461.233 953.418 462.024C952.677 462.816 952.306 463.911 952.306 465.276C952.306 467.146 952.997 468.561 954.396 469.522C955.794 470.482 957.563 470.954 959.719 470.954V470.971Z" fill="white"/>
<path d="M1000.15 439.869V444.435H981.958V439.869H1000.15ZM987.248 431.462H992.64V464.939C992.64 466.472 992.859 467.601 993.313 468.359C993.768 469.117 994.341 469.623 995.049 469.876C995.756 470.128 996.515 470.246 997.306 470.246C997.896 470.246 998.385 470.213 998.772 470.145C999.16 470.078 999.463 470.027 999.682 469.977L1000.78 474.829C1000.41 474.964 999.901 475.098 999.244 475.25C998.587 475.402 997.761 475.469 996.75 475.469C995.217 475.469 993.735 475.149 992.286 474.492C990.837 473.835 989.624 472.841 988.68 471.493C987.72 470.145 987.248 468.46 987.248 466.422V431.479V431.462Z" fill="white"/>
<path d="M1011.04 434.023C1009.99 434.023 1009.08 433.67 1008.33 432.945C1007.57 432.238 1007.2 431.361 1007.2 430.367C1007.2 429.373 1007.57 428.497 1008.33 427.79C1009.08 427.082 1009.98 426.711 1011.04 426.711C1012.1 426.711 1012.99 427.065 1013.75 427.79C1014.51 428.514 1014.88 429.373 1014.88 430.367C1014.88 431.361 1014.51 432.238 1013.75 432.945C1012.99 433.67 1012.1 434.023 1011.04 434.023ZM1008.29 474.997V439.87H1013.68V474.997H1008.29Z" fill="white"/>
<path d="M1037.84 475.722C1034.68 475.722 1031.9 474.964 1029.5 473.464C1027.11 471.948 1025.26 469.842 1023.93 467.129C1022.6 464.417 1021.92 461.249 1021.92 457.61C1021.92 453.971 1022.6 450.753 1023.93 448.024C1025.26 445.294 1027.13 443.172 1029.5 441.672C1031.9 440.156 1034.68 439.415 1037.84 439.415C1041.01 439.415 1043.79 440.173 1046.18 441.672C1048.58 443.188 1050.43 445.294 1051.76 448.024C1053.09 450.753 1053.77 453.954 1053.77 457.61C1053.77 461.266 1053.09 464.417 1051.76 467.129C1050.43 469.842 1048.56 471.948 1046.18 473.464C1043.79 474.98 1041.01 475.722 1037.84 475.722ZM1037.84 470.886C1040.25 470.886 1042.24 470.263 1043.79 469.033C1045.34 467.803 1046.5 466.169 1047.25 464.164C1047.99 462.159 1048.37 459.969 1048.37 457.627C1048.37 455.285 1048 453.095 1047.25 451.056C1046.5 449.035 1045.34 447.384 1043.79 446.137C1042.24 444.89 1040.25 444.267 1037.84 444.267C1035.43 444.267 1033.45 444.89 1031.9 446.137C1030.35 447.384 1029.18 449.035 1028.44 451.056C1027.7 453.078 1027.31 455.268 1027.31 457.627C1027.31 459.986 1027.68 462.159 1028.44 464.164C1029.18 466.169 1030.35 467.803 1031.9 469.033C1033.45 470.263 1035.43 470.886 1037.84 470.886Z" fill="white"/>
<path d="M1067.4 453.87V474.997H1062V439.869H1067.21V445.362H1067.66C1068.49 443.576 1069.74 442.144 1071.42 441.049C1073.11 439.954 1075.26 439.415 1077.93 439.415C1080.3 439.415 1082.39 439.903 1084.18 440.863C1085.96 441.824 1087.34 443.29 1088.34 445.261C1089.33 447.215 1089.82 449.692 1089.82 452.674V474.997H1084.43V453.044C1084.43 450.281 1083.7 448.125 1082.27 446.592C1080.84 445.042 1078.87 444.267 1076.38 444.267C1074.66 444.267 1073.12 444.637 1071.78 445.396C1070.43 446.137 1069.37 447.232 1068.59 448.664C1067.82 450.096 1067.43 451.831 1067.43 453.87H1067.4Z" fill="white"/>
<path d="M1124.56 447.737L1119.71 449.102C1119.4 448.293 1118.95 447.502 1118.38 446.743C1117.79 445.968 1116.99 445.345 1115.98 444.84C1114.97 444.334 1113.69 444.081 1112.13 444.081C1109.97 444.081 1108.18 444.57 1106.77 445.547C1105.34 446.524 1104.63 447.771 1104.63 449.287C1104.63 450.635 1105.12 451.697 1106.09 452.472C1107.07 453.247 1108.59 453.904 1110.66 454.409L1115.87 455.69C1119 456.448 1121.34 457.61 1122.89 459.177C1124.42 460.744 1125.2 462.749 1125.2 465.209C1125.2 467.214 1124.63 469.016 1123.48 470.6C1122.34 472.184 1120.72 473.43 1118.66 474.357C1116.61 475.267 1114.21 475.722 1111.49 475.722C1107.9 475.722 1104.93 474.947 1102.59 473.397C1100.25 471.847 1098.75 469.572 1098.12 466.59L1103.25 465.31C1103.74 467.197 1104.66 468.612 1106.03 469.555C1107.39 470.499 1109.18 470.971 1111.38 470.971C1113.89 470.971 1115.9 470.432 1117.38 469.353C1118.86 468.275 1119.61 466.995 1119.61 465.478C1119.61 464.265 1119.18 463.237 1118.33 462.395C1117.47 461.57 1116.15 460.946 1114.4 460.525L1108.54 459.16C1105.32 458.402 1102.96 457.206 1101.46 455.605C1099.96 454.005 1099.2 451.983 1099.2 449.557C1099.2 447.569 1099.76 445.817 1100.89 444.3C1102.02 442.784 1103.53 441.588 1105.49 440.712C1107.44 439.836 1109.63 439.415 1112.11 439.415C1115.58 439.415 1118.31 440.173 1120.31 441.706C1122.3 443.222 1123.72 445.244 1124.56 447.737Z" fill="white"/>
</g>
<defs>
<linearGradient id="paint0_linear_867_641" x1="169.099" y1="397.8" x2="246.869" y2="397.8" gradientUnits="userSpaceOnUse">
<stop stop-color="#1D4ED8"/>
<stop offset="0.44" stop-color="#1E52DB"/>
<stop offset="0.88" stop-color="#235EE6"/>
<stop offset="1" stop-color="#2563EB"/>
</linearGradient>
<linearGradient id="paint1_linear_867_641" x1="58.8126" y1="316.291" x2="110.586" y2="367.879" gradientUnits="userSpaceOnUse">
<stop stop-color="#60A5FA"/>
<stop offset="0.85" stop-color="#3B82F6"/>
</linearGradient>
<clipPath id="clip0_867_641">
<rect width="1103.2" height="224.869" fill="white" transform="translate(22 280)"/>
</clipPath>
</defs>
</svg>
