<svg width="1148" height="784" viewBox="0 0 1148 784" fill="none" xmlns="http://www.w3.org/2000/svg">
<path d="M296.075 264C300.871 264 304.796 267.925 304.796 272.721V511.075C304.796 515.871 300.871 519.796 296.075 519.796H57.7207C52.9245 519.796 49 515.871 49 511.075V272.721C49 267.925 52.9245 264 57.7207 264H296.075ZM167.139 363.136C158.317 356.828 148.58 356.539 138.597 359.729C129.389 362.672 122.298 368.778 115.774 375.636C115.015 376.434 114.268 377.244 113.154 378.435C113.154 372.261 113.156 366.674 113.154 361.087C113.153 357.922 112.373 357.423 109.408 358.419C99.5327 361.737 89.6499 365.032 79.7471 368.268C76.0073 369.49 75.979 369.404 76.4297 373.331C76.4369 373.394 76.4863 373.453 76.4326 373.341C78.8375 373.118 81.1703 372.78 83.5107 372.711C88.2687 372.57 90.8812 374.62 91.7285 379.286C92.1963 381.861 92.4942 384.506 92.502 387.12C92.5633 407.585 92.5515 428.05 92.5195 448.515C92.5144 451.682 92.3787 454.855 92.1533 458.015C91.6691 464.807 88.7204 468.238 82.0635 469.834C80.3819 470.237 78.6565 470.458 76.9326 470.766V474.483H130.183V470.841C127.468 470.311 124.869 469.942 122.348 469.28C118.033 468.147 115.065 465.554 114.311 460.951C114.083 459.562 113.981 458.136 113.979 456.728C113.959 436.33 113.958 415.933 113.974 395.536C113.976 392.44 113.181 388.916 114.39 386.364C115.675 383.651 118.839 381.783 121.299 379.682C127.336 374.524 134.062 371.183 142.312 372.021C147.992 372.599 152.457 375.029 155.158 380.234C157.253 384.27 158.186 388.645 158.214 393.112C158.334 411.955 158.314 430.798 158.293 449.642C158.29 452.266 158.119 454.905 157.819 457.514C156.991 464.733 153.802 468.425 147.146 469.99C145.721 470.325 144.254 470.48 142.688 470.736C142.599 471.955 142.511 473.145 142.415 474.463H195.059C195.06 473.201 195.06 472.013 195.06 470.819C192.6 470.298 190.287 469.88 188.013 469.31C183.99 468.3 181.38 465.778 180.583 461.672C180.136 459.37 179.802 457.004 179.794 454.665C179.732 435.552 179.873 416.436 179.684 397.324C179.631 392.034 179.05 386.679 178.038 381.485C176.613 374.177 173.382 367.601 167.139 363.136Z" fill="white"/>
<path d="M271.764 309.312C262.837 309.312 254.149 309.312 245.426 309.312C245.014 310.985 245.014 311.971 247.217 312.122C251.854 312.441 252.998 314.784 250.632 318.72C249.313 320.916 247.881 323.044 246.47 325.183C244.621 327.984 242.742 330.766 240.759 333.732C239.955 332.652 239.234 331.849 238.698 330.936C236.177 326.645 233.544 322.407 231.272 317.984C229.666 314.859 230.718 313.074 234.156 312.263C235.304 311.993 236.503 311.938 237.707 311.781C237.707 310.88 237.707 310.155 237.707 309.343C226.055 309.343 214.481 309.343 202.88 309.343C202.88 310.207 202.88 310.935 202.88 311.658C209.676 312.026 210.953 313.334 216.246 320.442C216.326 320.55 216.399 320.664 216.473 320.777C221.704 328.798 226.913 336.833 232.189 344.824C232.887 345.881 232.914 346.607 232.178 347.663C225.777 356.85 219.451 366.09 213.07 375.291C210.311 379.271 207.15 382.708 201.787 382.623C201.787 383.651 201.787 384.477 201.787 385.243C210.011 385.243 218.078 385.243 226.26 385.243C226.21 384.304 226.169 383.532 226.132 382.841C224.489 382.608 223.061 382.548 221.716 382.183C219.506 381.583 218.929 380.317 219.856 378.21C220.477 376.798 221.216 375.422 222.043 374.12C226.421 367.238 230.842 360.383 235.257 353.525C235.491 353.161 235.814 352.856 236.21 352.388C240.029 358.263 243.737 363.967 247.445 369.672C248.878 371.877 250.398 374.032 251.719 376.303C253.435 379.254 252.35 381.628 249.059 382.331C248.026 382.552 246.958 382.608 245.851 382.746C245.851 383.627 245.851 384.409 245.851 385.232C257.164 385.232 268.388 385.232 279.592 385.232C279.847 382.839 279.843 382.864 277.779 382.553C277.054 382.444 276.331 382.24 275.647 381.977C272.301 380.686 269.818 378.264 267.9 375.382C260.32 363.989 252.887 352.498 245.318 341.098C244.483 339.839 244.576 339.054 245.386 337.903C249.654 331.837 253.848 325.72 258.062 319.616C260.75 315.723 264.431 313.294 269.01 312.212C269.901 312.001 270.825 311.933 271.765 311.795C271.764 310.897 271.764 310.169 271.764 309.312Z" fill="#2FA0DA"/>
<path d="M415.818 435.031H395.337L362.277 377.539H361.809C361.948 379.93 362.069 382.338 362.173 384.764C362.277 387.19 362.381 389.616 362.485 392.042C362.589 394.433 362.693 396.841 362.797 399.267V435.031H348.398V359.033H368.723L401.731 415.953H402.095C402.026 413.597 401.939 411.258 401.835 408.936C401.731 406.614 401.627 404.292 401.523 401.97C401.454 399.648 401.385 397.326 401.315 395.005V359.033H415.818V435.031ZM457.716 375.823C463.087 375.823 467.714 376.863 471.595 378.942C475.476 380.987 478.474 383.967 480.588 387.883C482.702 391.799 483.759 396.581 483.759 402.23V409.923H446.28C446.453 414.394 447.787 417.911 450.282 420.476C452.812 423.006 456.312 424.27 460.783 424.27C464.491 424.27 467.887 423.889 470.971 423.127C474.056 422.364 477.227 421.221 480.484 419.696V431.964C477.608 433.385 474.593 434.424 471.439 435.083C468.32 435.741 464.526 436.07 460.055 436.07C454.233 436.07 449.07 434.996 444.564 432.848C440.094 430.699 436.577 427.424 434.012 423.023C431.482 418.622 430.217 413.077 430.217 406.389C430.217 399.596 431.361 393.948 433.648 389.443C435.97 384.903 439.193 381.507 443.317 379.254C447.441 376.967 452.24 375.823 457.716 375.823ZM457.82 387.103C454.736 387.103 452.171 388.091 450.127 390.066C448.117 392.042 446.956 395.143 446.644 399.371H468.892C468.857 397.015 468.424 394.918 467.593 393.081C466.795 391.245 465.583 389.789 463.954 388.715C462.36 387.64 460.315 387.103 457.82 387.103ZM521.134 423.439C522.867 423.439 524.547 423.265 526.176 422.919C527.84 422.572 529.486 422.139 531.115 421.619V433.419C529.416 434.182 527.303 434.806 524.773 435.291C522.278 435.81 519.54 436.07 516.56 436.07C513.094 436.07 509.975 435.516 507.203 434.407C504.465 433.263 502.299 431.305 500.705 428.533C499.146 425.726 498.366 421.827 498.366 416.837V388.819H490.776V382.113L499.509 376.811L504.084 364.543H514.22V376.915H530.491V388.819H514.22V416.837C514.22 419.055 514.844 420.718 516.092 421.827C517.374 422.902 519.055 423.439 521.134 423.439ZM590.686 435.031L586.216 414.706C585.973 413.493 585.574 411.708 585.02 409.352C584.465 406.96 583.859 404.413 583.201 401.71C582.577 398.973 581.988 396.443 581.433 394.121C580.913 391.799 580.532 390.101 580.29 389.027H579.822C579.579 390.101 579.198 391.799 578.678 394.121C578.158 396.443 577.569 398.973 576.911 401.71C576.287 404.448 575.698 407.03 575.143 409.456C574.589 411.847 574.173 413.666 573.896 414.914L569.217 435.031H552.167L535.637 376.915H551.44L558.145 402.646C558.596 404.448 559.029 406.597 559.445 409.092C559.861 411.552 560.225 413.943 560.536 416.265C560.883 418.552 561.143 420.372 561.316 421.723H561.732C561.801 420.718 561.94 419.384 562.148 417.721C562.39 416.057 562.65 414.342 562.928 412.575C563.239 410.772 563.517 409.161 563.759 407.74C564.037 406.285 564.244 405.297 564.383 404.777L571.557 376.915H589.023L595.832 404.777C596.075 405.782 596.387 407.376 596.768 409.56C597.184 411.743 597.548 413.995 597.86 416.317C598.171 418.604 598.345 420.406 598.379 421.723H598.795C598.934 420.545 599.176 418.795 599.523 416.473C599.869 414.151 600.268 411.725 600.719 409.196C601.204 406.631 601.689 404.448 602.174 402.646L609.14 376.915H624.682L607.944 435.031H590.686ZM686.905 405.869C686.905 410.72 686.246 415.018 684.929 418.76C683.647 422.503 681.759 425.674 679.263 428.273C676.803 430.838 673.823 432.778 670.322 434.095C666.857 435.412 662.941 436.07 658.575 436.07C654.485 436.07 650.725 435.412 647.294 434.095C643.898 432.778 640.935 430.838 638.405 428.273C635.91 425.674 633.97 422.503 632.584 418.76C631.232 415.018 630.556 410.72 630.556 405.869C630.556 399.423 631.7 393.965 633.987 389.494C636.274 385.024 639.532 381.628 643.76 379.306C647.988 376.984 653.03 375.823 658.886 375.823C664.327 375.823 669.144 376.984 673.337 379.306C677.565 381.628 680.875 385.024 683.266 389.494C685.692 393.965 686.905 399.423 686.905 405.869ZM646.723 405.869C646.723 409.681 647.138 412.886 647.97 415.486C648.802 418.085 650.101 420.043 651.869 421.359C653.636 422.676 655.941 423.335 658.782 423.335C661.589 423.335 663.859 422.676 665.592 421.359C667.359 420.043 668.642 418.085 669.439 415.486C670.27 412.886 670.686 409.681 670.686 405.869C670.686 402.022 670.27 398.834 669.439 396.304C668.642 393.74 667.359 391.816 665.592 390.534C663.825 389.252 661.52 388.611 658.678 388.611C654.485 388.611 651.436 390.049 649.53 392.925C647.658 395.802 646.723 400.116 646.723 405.869ZM732.441 375.823C733.238 375.823 734.156 375.875 735.196 375.979C736.27 376.048 737.137 376.152 737.795 376.291L736.6 391.158C736.08 390.985 735.335 390.863 734.364 390.794C733.429 390.69 732.614 390.638 731.921 390.638C729.877 390.638 727.884 390.898 725.943 391.418C724.037 391.938 722.322 392.787 720.797 393.965C719.272 395.109 718.059 396.633 717.158 398.539C716.292 400.411 715.859 402.715 715.859 405.453V435.031H700.004V376.915H712.012L714.351 386.687H715.131C716.275 384.712 717.695 382.91 719.393 381.281C721.126 379.618 723.084 378.301 725.267 377.331C727.485 376.326 729.877 375.823 732.441 375.823ZM764.202 354.147V390.326C764.202 392.509 764.115 394.693 763.942 396.876C763.769 399.059 763.578 401.242 763.37 403.426H763.578C764.653 401.901 765.744 400.393 766.853 398.903C767.997 397.413 769.21 395.975 770.492 394.589L786.762 376.915H804.644L781.564 402.126L806.048 435.031H787.75L771.012 411.483L764.202 416.941V435.031H748.347V354.147H764.202ZM884.592 396.928C884.592 402.785 883.865 408.121 882.409 412.938C880.954 417.721 878.736 421.845 875.755 425.31C872.81 428.776 869.067 431.444 864.527 433.315C859.988 435.152 854.616 436.07 848.413 436.07C842.21 436.07 836.838 435.152 832.298 433.315C827.759 431.444 823.999 428.776 821.018 425.31C818.073 421.845 815.872 417.703 814.417 412.886C812.961 408.069 812.233 402.715 812.233 396.824C812.233 388.957 813.516 382.113 816.08 376.291C818.679 370.434 822.664 365.895 828.036 362.672C833.407 359.449 840.234 357.837 848.517 357.837C856.765 357.837 863.54 359.449 868.842 362.672C874.179 365.895 878.129 370.434 880.694 376.291C883.293 382.148 884.592 389.027 884.592 396.928ZM829.128 396.928C829.128 402.23 829.786 406.805 831.103 410.651C832.454 414.463 834.551 417.409 837.393 419.488C840.234 421.533 843.908 422.555 848.413 422.555C852.987 422.555 856.695 421.533 859.537 419.488C862.379 417.409 864.441 414.463 865.723 410.651C867.04 406.805 867.698 402.23 867.698 396.928C867.698 388.957 866.208 382.685 863.228 378.11C860.247 373.536 855.344 371.249 848.517 371.249C843.977 371.249 840.269 372.288 837.393 374.368C834.551 376.412 832.454 379.358 831.103 383.205C829.786 387.017 829.128 391.591 829.128 396.928ZM931.428 375.823C937.978 375.823 943.263 378.37 947.283 383.465C951.337 388.559 953.365 396.027 953.365 405.869C953.365 412.453 952.412 417.998 950.506 422.503C948.6 426.974 945.966 430.352 942.604 432.64C939.243 434.927 935.379 436.07 931.012 436.07C928.205 436.07 925.797 435.724 923.787 435.031C921.777 434.303 920.061 433.385 918.641 432.276C917.22 431.132 915.99 429.919 914.95 428.637H914.118C914.395 430.023 914.603 431.444 914.742 432.899C914.881 434.355 914.95 435.776 914.95 437.162V460.606H899.095V376.915H911.987L914.222 384.452H914.95C915.99 382.893 917.254 381.455 918.745 380.138C920.235 378.821 922.019 377.781 924.099 377.019C926.213 376.222 928.656 375.823 931.428 375.823ZM926.334 388.507C923.562 388.507 921.361 389.079 919.732 390.222C918.103 391.366 916.908 393.081 916.145 395.368C915.418 397.656 915.019 400.549 914.95 404.049V405.765C914.95 409.508 915.296 412.678 915.99 415.278C916.717 417.877 917.913 419.852 919.576 421.204C921.274 422.555 923.596 423.231 926.542 423.231C928.968 423.231 930.96 422.555 932.52 421.204C934.079 419.852 935.24 417.877 936.003 415.278C936.8 412.644 937.198 409.438 937.198 405.661C937.198 399.978 936.315 395.698 934.547 392.821C932.78 389.945 930.042 388.507 926.334 388.507ZM990.948 423.439C992.68 423.439 994.361 423.265 995.99 422.919C997.653 422.572 999.299 422.139 1000.93 421.619V433.419C999.23 434.182 997.116 434.806 994.586 435.291C992.091 435.81 989.354 436.07 986.373 436.07C982.908 436.07 979.789 435.516 977.016 434.407C974.279 433.263 972.113 431.305 970.519 428.533C968.959 425.726 968.18 421.827 968.18 416.837V388.819H960.59V382.113L969.323 376.811L973.898 364.543H984.034V376.915H1000.3V388.819H984.034V416.837C984.034 419.055 984.658 420.718 985.905 421.827C987.188 422.902 988.868 423.439 990.948 423.439ZM1028.58 376.915V435.031H1012.73V376.915H1028.58ZM1020.68 354.147C1023.04 354.147 1025.07 354.701 1026.76 355.81C1028.46 356.884 1029.31 358.912 1029.31 361.892C1029.31 364.838 1028.46 366.882 1026.76 368.026C1025.07 369.135 1023.04 369.689 1020.68 369.689C1018.29 369.689 1016.25 369.135 1014.55 368.026C1012.88 366.882 1012.05 364.838 1012.05 361.892C1012.05 358.912 1012.88 356.884 1014.55 355.81C1016.25 354.701 1018.29 354.147 1020.68 354.147ZM1057.17 405.349L1038.46 376.915H1056.45L1067.73 395.42L1079.11 376.915H1097.09L1078.17 405.349L1097.98 435.031H1079.94L1067.73 415.122L1055.46 435.031H1037.47L1057.17 405.349Z" fill="white"/>
</svg>
