<svg width="1148" height="784" viewBox="0 0 1148 784" fill="none" xmlns="http://www.w3.org/2000/svg">
<g clip-path="url(#clip0_867_438)">
<g clip-path="url(#clip1_867_438)">
<path d="M603 331.381C624.859 331.381 678.53 330.566 678.53 330.566L694.027 283.91H601.205C557.976 283.91 537.747 305.28 529.917 315.395C522.087 325.509 518.008 337.58 518.172 351.12C518.172 369.717 528.123 383.747 542.315 392.392C553.408 399.244 590.765 410.5 602.51 413.763C614.745 417.352 619.313 424.856 617.845 433.012C616.377 441.169 605.773 447.857 590.765 447.857H507.079L491.255 495.328H593.865C639.541 495.328 659.28 472.816 666.132 462.05C673.636 450.304 677.225 437.254 677.225 423.714C677.225 400.549 661.238 380.647 637.257 373.469C629.264 371.022 601.042 363.845 591.091 361.398C581.956 359.114 576.246 352.099 577.714 344.269C579.346 335.786 586.36 331.381 602.837 331.381H603Z" fill="white"/>
<path d="M977.386 331.381C999.246 331.381 1052.92 330.566 1052.92 330.566L1068.41 283.91H975.592C932.362 283.91 912.134 305.28 904.303 315.395C896.473 325.509 892.395 337.58 892.558 351.12C892.558 369.717 902.509 383.747 916.701 392.392C927.794 399.244 965.151 410.5 976.897 413.763C989.132 417.352 993.699 424.856 992.231 433.012C990.437 442.8 980.159 447.857 965.151 447.857H881.465L865.641 495.328H968.251C1013.93 495.328 1033.67 472.816 1040.52 462.05C1048.02 450.304 1051.61 437.254 1051.61 423.714C1051.61 400.549 1035.62 380.647 1011.64 373.469C1003.65 371.022 975.429 363.845 965.478 361.398C956.342 359.114 950.633 352.099 952.101 344.269C953.732 335.786 960.747 331.381 977.223 331.381H977.386Z" fill="white"/>
<path d="M789.296 495.329C722.086 491.577 685.381 464.17 684.728 401.528C684.402 365.313 699.084 334.155 720.128 313.6C740.846 293.372 771.678 279.343 808.382 279.506C847.697 279.669 864.989 294.024 874.613 309.196C891.742 336.439 880.812 372.328 859.116 390.272C845.902 401.365 827.632 413.763 788.154 421.104C772.33 424.04 748.023 426.161 748.023 426.161C752.917 436.601 774.777 447.368 799.41 447.694H866.457L850.633 495.165H789.459L789.296 495.329ZM742.64 387.009C742.64 387.009 750.47 386.683 763.521 384.073C775.43 381.626 810.829 373.959 821.269 357.156C831.71 340.354 824.695 338.722 818.659 333.665C809.035 325.346 783.586 324.693 764.5 342.964C741.172 365.313 742.803 387.336 742.803 387.336L742.64 387.009Z" fill="white"/>
<path d="M350.799 369.718C338.727 353.404 324.535 336.928 308.385 320.941C292.235 304.954 275.758 290.599 259.608 278.527C314.584 237.581 366.459 221.268 387.177 241.986C408.058 262.866 391.745 314.579 350.636 369.718H350.799Z" fill="url(#paint0_linear_867_438)"/>
<path d="M85.8735 418.983C68.5816 358.135 83.916 289.946 131.877 241.986C138.891 234.971 150.963 232.524 164.177 233.503C156.836 239.049 149.658 245.248 142.97 252.1C136.281 258.788 130.082 265.966 124.536 273.307C91.0937 317.189 79.1852 370.044 85.8735 418.983Z" fill="url(#paint1_linear_867_438)"/>
<path d="M116.052 479.179C116.052 479.179 116.052 479.016 115.889 478.853C100.881 459.277 92.3983 435.297 91.9089 410.501C91.0932 373.143 103.491 333.013 128.287 297.287C135.954 286.031 144.927 275.265 155.041 265.151C165.155 255.036 175.922 246.064 187.178 238.397C195.497 241.17 204.143 244.759 213.279 249.49C199.249 258.788 185.546 270.044 172.659 282.932C159.772 295.819 148.679 309.522 139.217 323.552C103.002 378.037 93.5402 438.233 115.889 479.342L116.052 479.179Z" fill="url(#paint2_linear_867_438)"/>
<path d="M131.877 497.286C99.7401 465.149 108.712 401.528 149.169 341.332C159.609 325.998 172.007 310.827 186.363 296.471C200.718 282.116 215.89 269.718 231.224 259.277C240.522 264.824 249.984 271.186 259.609 278.364C243.296 290.435 226.819 304.628 210.832 320.778C194.846 336.928 180.49 353.404 168.418 369.554C127.472 424.529 111.159 476.405 131.877 497.123V497.286Z" fill="url(#paint3_linear_867_438)"/>
<path d="M332.691 442.963C318.336 457.319 303.164 469.717 287.83 480.157C227.635 520.777 164.013 529.749 131.876 497.449C152.757 518.33 204.47 502.017 259.608 460.908C275.758 448.836 292.398 434.644 308.385 418.494C324.371 402.344 338.727 385.867 350.799 369.717C357.977 379.342 364.339 388.804 369.885 398.102C359.445 413.436 347.047 428.608 332.691 442.963Z" fill="url(#paint4_linear_867_438)"/>
<path d="M364.013 474.122C353.899 484.236 343.132 493.208 331.876 500.875C296.15 525.671 256.02 538.069 218.663 537.254C193.867 536.764 169.886 528.281 150.148 513.273H149.821C190.767 535.296 251.126 525.997 305.449 489.782C319.478 480.484 333.181 469.228 346.068 456.34C358.956 443.453 370.049 429.75 379.51 415.721C384.078 424.856 387.83 433.665 390.603 441.822C382.936 453.078 373.964 463.844 363.85 473.959L364.013 474.122Z" fill="url(#paint5_linear_867_438)"/>
<path d="M433.18 320.452C430.081 309.522 426.002 298.755 420.619 288.315C415.725 278.527 409.852 269.065 403.001 260.093C398.27 253.731 392.887 247.695 387.014 241.822C407.895 262.703 391.582 314.416 350.473 369.554C357.65 379.179 364.013 388.64 369.559 397.939C373.311 403.975 376.574 410.011 379.51 415.883C384.078 425.019 387.83 433.828 390.603 441.984C393.05 449.488 394.681 456.503 395.497 463.028C398.27 483.746 390.929 493.208 387.667 496.47C434.975 448.673 450.146 380.81 433.017 320.288L433.18 320.452Z" fill="url(#paint6_linear_867_438)"/>
<path d="M395.66 463.192C390.114 470.533 383.751 477.874 377.063 484.562C370.375 491.25 363.197 497.449 355.856 503.159C311.974 536.601 258.793 552.425 210.18 543.452C270.865 560.581 338.564 545.41 386.525 498.102C386.525 497.939 387.177 497.449 387.83 496.797C391.092 493.534 398.433 484.073 395.66 463.355V463.192Z" fill="url(#paint7_linear_867_438)"/>
</g>
</g>
<defs>
<linearGradient id="paint0_linear_867_438" x1="409.526" y1="208.707" x2="291.582" y2="339.049" gradientUnits="userSpaceOnUse">
<stop stop-color="#16023D"/>
<stop offset="0.1" stop-color="#270953"/>
<stop offset="1" stop-color="#AA96E8"/>
</linearGradient>
<linearGradient id="paint1_linear_867_438" x1="169.723" y1="124.531" x2="78.2064" y2="436.765" gradientUnits="userSpaceOnUse">
<stop stop-color="#3C269D"/>
<stop offset="1" stop-color="#D1BAFE"/>
</linearGradient>
<linearGradient id="paint2_linear_867_438" x1="205.611" y1="135.298" x2="114.095" y2="447.205" gradientUnits="userSpaceOnUse">
<stop stop-color="#3C269D"/>
<stop offset="1" stop-color="#D1BAFE"/>
</linearGradient>
<linearGradient id="paint3_linear_867_438" x1="246.069" y1="147.043" x2="154.552" y2="459.113" gradientUnits="userSpaceOnUse">
<stop stop-color="#3C269D"/>
<stop offset="1" stop-color="#D1BAFE"/>
</linearGradient>
<linearGradient id="paint4_linear_867_438" x1="148.19" y1="525.181" x2="368.58" y2="395.981" gradientUnits="userSpaceOnUse">
<stop stop-color="#3C269D"/>
<stop offset="1" stop-color="#D1BAFE"/>
</linearGradient>
<linearGradient id="paint5_linear_867_438" x1="170.702" y1="548.673" x2="384.241" y2="423.551" gradientUnits="userSpaceOnUse">
<stop stop-color="#3C269D"/>
<stop offset="1" stop-color="#D1BAFE"/>
</linearGradient>
<linearGradient id="paint6_linear_867_438" x1="303.491" y1="469.064" x2="428.776" y2="320.941" gradientUnits="userSpaceOnUse">
<stop stop-color="#3C269D"/>
<stop offset="1" stop-color="#D1BAFE"/>
</linearGradient>
<linearGradient id="paint7_linear_867_438" x1="224.209" y1="567.433" x2="397.291" y2="465.965" gradientUnits="userSpaceOnUse">
<stop stop-color="#3C269D"/>
<stop offset="1" stop-color="#D1BAFE"/>
</linearGradient>
<clipPath id="clip0_867_438">
<rect width="1148" height="784" fill="white"/>
</clipPath>
<clipPath id="clip1_867_438">
<rect width="1180.4" height="453.6" fill="white" transform="translate(-16 165)"/>
</clipPath>
</defs>
</svg>
