<svg width="1148" height="784" viewBox="0 0 1148 784" fill="none" xmlns="http://www.w3.org/2000/svg">
<g clip-path="url(#clip0_867_530)">
<path d="M883.651 190.229C883.651 215.99 862.796 237.458 836.422 237.458C810.66 237.458 789.192 216.604 789.192 190.229C789.192 164.468 810.047 143 836.422 143C862.183 143 883.651 163.854 883.651 190.229Z" fill="#00B8E4"/>
<path d="M756.072 190.229C756.072 215.99 735.217 237.458 708.842 237.458C683.081 237.458 661.613 216.604 661.613 190.229C661.613 164.468 682.468 143 708.842 143C734.604 143 756.072 164.468 756.072 190.229Z" fill="#00B8E4"/>
<path d="M551.207 504.885H549.98C532.806 533.713 500.911 545.367 468.403 545.367C420.56 545.367 379.465 519.606 379.465 465.016C379.465 372.398 484.35 370.558 550.594 370.558C550.594 341.116 527.286 324.556 499.684 324.556C473.923 324.556 452.455 336.823 435.281 356.451L392.959 311.062C421.787 282.233 464.109 268.126 506.432 268.126C599.05 268.126 623.584 314.742 623.584 404.293V538.007H551.207V504.885ZM531.58 423.921C507.045 423.921 453.069 426.374 453.069 462.563C453.069 482.191 473.31 488.938 490.484 488.938C521.766 488.938 550.594 474.217 550.594 441.095V423.307H531.58V423.921Z" fill="white"/>
<path d="M751.776 260.767H668.358V539.235H751.776V260.767Z" fill="white"/>
<path d="M317.514 473.603C281.325 473.603 277.645 452.135 277.645 423.307V362.583H351.249V289.593H277.645V246.044H194.228V461.949C194.228 520.832 237.163 544.14 292.979 544.14C312.607 544.14 333.462 542.3 351.862 535.552V465.629C343.889 472.376 326.101 473.603 317.514 473.603Z" fill="white"/>
<path d="M953.575 362.586V289.595H879.971V260.767H796.554V461.951C796.554 520.834 839.489 544.142 895.306 544.142C914.933 544.142 935.788 542.302 954.189 535.555V465.631C946.828 472.378 929.041 473.605 919.84 473.605C883.652 473.605 879.971 452.137 879.971 423.309V362.586H953.575Z" fill="white"/>
<path d="M711.908 632.465C708.228 637.985 702.094 640.439 695.96 640.439C686.76 640.439 678.786 634.919 678.786 623.878C678.786 605.477 699.027 604.864 711.908 604.864C711.908 598.73 707.614 595.05 702.094 595.05C697.187 595.05 692.894 597.503 689.827 601.797L681.853 592.596C687.373 587.076 695.347 584.009 703.321 584.009C721.108 584.009 725.402 593.823 725.402 611.611V639.212H711.295L711.908 632.465ZM708.228 615.291C703.321 615.291 693.507 615.904 693.507 623.265C693.507 626.945 697.187 629.398 700.867 629.398C707.001 629.398 712.521 625.718 712.521 619.584V615.904L708.228 615.291Z" fill="#00B8E4"/>
<path d="M219.375 584.623C232.869 584.623 241.456 592.597 243.296 604.251H228.575C227.962 599.957 224.282 597.504 219.375 597.504C212.628 597.504 208.334 603.637 208.334 612.838C208.334 622.038 212.628 628.172 219.375 628.172C224.282 628.172 227.348 625.719 228.575 621.425H243.296C241.456 633.079 232.869 641.053 219.375 641.053C204.041 641.053 193 629.399 193 612.838C193 595.664 203.427 584.623 219.375 584.623Z" fill="#00B8E4"/>
<path d="M273.349 641.053C257.402 641.053 246.975 629.399 246.975 612.838C246.975 596.277 258.015 584.623 273.349 584.623C289.297 584.623 299.724 596.277 299.724 612.838C300.337 629.399 289.297 641.053 273.349 641.053ZM273.349 596.89C265.989 596.89 261.695 603.637 261.695 612.838C261.695 622.038 265.989 628.172 273.349 628.172C280.71 628.172 285.003 621.425 285.003 612.838C285.003 603.637 281.323 596.89 273.349 596.89Z" fill="#00B8E4"/>
<path d="M367.809 584.008C378.85 584.008 385.597 591.982 385.597 604.249V639.825H370.263V607.316C370.263 601.183 367.809 597.502 362.289 597.502C358.609 597.502 354.929 599.956 353.702 604.249V639.211H338.368V606.703C338.368 600.569 335.914 596.889 330.394 596.889C326.714 596.889 323.034 599.342 321.807 604.249V639.211H306.473V584.622H321.807V588.915C324.26 585.235 329.167 583.395 335.301 583.395C342.048 583.395 346.955 586.462 350.022 590.142C354.929 587.075 359.835 584.008 367.809 584.008Z" fill="#00B8E4"/>
<path d="M455.523 584.009C466.564 584.009 473.311 591.983 473.311 604.25V639.826H457.976V607.317C457.976 601.183 455.523 597.503 450.003 597.503C446.323 597.503 442.642 599.957 441.416 604.864V639.826H426.081V607.317C426.081 601.183 423.628 597.503 418.721 597.503C415.041 597.503 411.361 599.957 410.134 604.864V639.826H394.8V585.236H410.134V589.53C412.587 585.849 417.494 584.009 423.628 584.009C430.375 584.009 435.282 587.076 438.349 590.756C442.642 587.076 448.163 584.009 455.523 584.009Z" fill="#00B8E4"/>
<path d="M532.189 639.826H516.855V634.919C513.788 638.6 508.881 641.053 502.134 641.053C489.867 641.053 483.12 633.079 483.12 620.812V585.237H498.454V617.745C498.454 623.265 501.521 627.559 507.041 627.559C511.948 627.559 515.628 624.492 516.855 620.199V585.85H532.189V639.826Z" fill="#00B8E4"/>
<path d="M543.232 585.236H558.566V590.143C561.632 586.463 566.539 584.009 573.286 584.009C585.554 584.009 592.301 591.983 592.301 604.25V639.826H576.967V607.317C576.967 601.797 573.9 597.503 567.766 597.503C562.859 597.503 559.179 600.57 557.952 604.864V639.212H542.618L543.232 585.236Z" fill="#00B8E4"/>
<path d="M852.982 584.622H868.316V589.529C871.382 585.848 876.903 583.395 883.036 583.395C895.304 583.395 902.051 591.369 902.051 603.636V639.211H886.717V606.703C886.717 601.183 883.65 596.889 877.516 596.889C872.609 596.889 868.929 599.956 867.702 604.249V638.598H852.368L852.982 584.622Z" fill="#00B8E4"/>
<path d="M610.088 577.876C605.181 577.876 600.888 574.196 600.888 569.289C600.888 564.382 605.181 560.702 610.088 560.702C614.995 560.702 618.675 564.382 618.675 569.289C618.675 574.81 614.995 577.876 610.088 577.876ZM617.449 639.826H602.114V585.237H617.449V639.826Z" fill="#00B8E4"/>
<path d="M651.186 584.009C664.68 584.009 673.267 591.983 675.107 603.637H660.387C659.773 599.343 656.093 596.89 651.186 596.89C644.439 596.89 640.146 603.024 640.146 612.224C640.146 621.425 644.439 627.558 651.186 627.558C656.093 627.558 659.16 625.105 660.387 620.811H675.107C673.267 632.465 664.68 640.439 651.186 640.439C635.852 640.439 624.812 628.785 624.812 612.224C625.425 595.663 635.852 584.009 651.186 584.009Z" fill="#00B8E4"/>
<path d="M733.989 570.517H748.71V585.237H760.364V597.505H748.71V621.426C748.71 625.72 751.164 627.56 754.844 627.56C757.297 627.56 759.751 626.946 761.591 625.72V639.214C759.751 640.44 756.07 641.054 751.777 641.054C740.736 641.054 733.989 635.533 733.989 623.266V570.517Z" fill="#00B8E4"/>
<path d="M778.153 577.876C773.246 577.876 768.952 574.196 768.952 569.289C768.952 564.382 773.246 560.702 778.153 560.702C783.06 560.702 787.353 564.382 787.353 569.289C787.353 574.196 783.06 577.876 778.153 577.876ZM786.126 639.213H770.792V584.623H786.126V639.213Z" fill="#00B8E4"/>
<path d="M819.862 640.439C803.914 640.439 793.487 628.785 793.487 612.224C793.487 595.663 804.528 584.009 819.862 584.009C835.809 584.009 846.237 595.663 846.237 612.224C846.85 628.785 835.809 640.439 819.862 640.439ZM819.862 596.277C812.502 596.277 808.208 603.024 808.208 612.224C808.208 621.425 812.502 627.558 819.862 627.558C827.222 627.558 831.516 620.811 831.516 612.224C831.516 603.024 827.836 596.277 819.862 596.277Z" fill="#00B8E4"/>
<path d="M922.902 623.264C924.129 626.944 927.809 629.397 932.103 629.397C937.01 629.397 939.463 627.557 939.463 623.877C939.463 621.424 937.623 620.197 933.943 618.97L922.902 616.517C914.315 614.677 908.795 610.383 908.795 601.183C908.795 590.755 917.995 583.395 930.263 583.395C943.757 583.395 951.731 590.142 953.571 599.956H939.463C938.237 596.889 935.783 594.436 930.876 594.436C927.196 594.436 923.516 596.276 923.516 599.343C923.516 601.796 924.743 603.023 928.423 603.636L939.463 606.09C948.664 608.543 954.184 613.45 954.184 622.037C954.184 633.078 944.37 639.825 932.103 639.825C918.609 639.825 909.408 633.691 908.182 622.65L922.902 623.264Z" fill="#00B8E4"/>
</g>
<defs>
<clipPath id="clip0_867_530">
<rect width="761.8" height="498.053" fill="white" transform="translate(193 143)"/>
</clipPath>
</defs>
</svg>
